%TF.GenerationSoftware,KiCad,Pcbnew,10.0.1*%
%TF.CreationDate,2026-08-19T00:10:16+02:00*%
%TF.ProjectId,Something,536f6d65-7468-4696-9e67-2e6b69636164,rev?*%
%TF.SameCoordinates,Original*%
%TF.FileFunction,Legend,Top*%
%TF.FilePolarity,Positive*%
%FSLAX46Y46*%
G04 Gerber Fmt 4.6, Leading zero omitted, Abs format (unit mm)*
G04 Created by KiCad (PCBNEW 10.0.1) date 2026-08-19 00:10:16*
%MOMM*%
%LPD*%
G01*
G04 APERTURE LIST*
%ADD10C,0.100000*%
%ADD11C,0.150000*%
%ADD12C,0.120000*%
%ADD13C,0.200000*%
G04 APERTURE END LIST*
D10*
X-364000000Y-99500000D02*
X-298500000Y-99500000D01*
X-298500000Y-119500000D01*
X-364000000Y-119500000D01*
X-364000000Y-99500000D01*
X-358000000Y-120000000D02*
X-358000000Y-175000000D01*
X-358000000Y-175000000D02*
X-335500000Y-175000000D01*
X-335500000Y-165000000D02*
X-320500000Y-165000000D01*
X-335500000Y-175000000D02*
X-335500000Y-165000000D01*
X-335000000Y-165500000D02*
X-285000000Y-165500000D01*
X-285000000Y-179750000D01*
X-335000000Y-179750000D01*
X-335000000Y-165500000D01*
X-320500000Y-120000000D02*
X-358000000Y-120000000D01*
X-320500000Y-165000000D02*
X-320500000Y-120000000D01*
X-320000000Y-130000000D02*
X-285000000Y-130000000D01*
X-285000000Y-165000000D01*
X-320000000Y-165000000D01*
X-320000000Y-130000000D01*
X-290678615Y-132084919D02*
X-290678615Y-131084919D01*
X-290678615Y-131084919D02*
X-290297663Y-131084919D01*
X-290297663Y-131084919D02*
X-290202425Y-131132538D01*
X-290202425Y-131132538D02*
X-290154806Y-131180157D01*
X-290154806Y-131180157D02*
X-290107187Y-131275395D01*
X-290107187Y-131275395D02*
X-290107187Y-131418252D01*
X-290107187Y-131418252D02*
X-290154806Y-131513490D01*
X-290154806Y-131513490D02*
X-290202425Y-131561109D01*
X-290202425Y-131561109D02*
X-290297663Y-131608728D01*
X-290297663Y-131608728D02*
X-290678615Y-131608728D01*
X-289488139Y-131084919D02*
X-289297663Y-131084919D01*
X-289297663Y-131084919D02*
X-289202425Y-131132538D01*
X-289202425Y-131132538D02*
X-289107187Y-131227776D01*
X-289107187Y-131227776D02*
X-289059568Y-131418252D01*
X-289059568Y-131418252D02*
X-289059568Y-131751585D01*
X-289059568Y-131751585D02*
X-289107187Y-131942061D01*
X-289107187Y-131942061D02*
X-289202425Y-132037300D01*
X-289202425Y-132037300D02*
X-289297663Y-132084919D01*
X-289297663Y-132084919D02*
X-289488139Y-132084919D01*
X-289488139Y-132084919D02*
X-289583377Y-132037300D01*
X-289583377Y-132037300D02*
X-289678615Y-131942061D01*
X-289678615Y-131942061D02*
X-289726234Y-131751585D01*
X-289726234Y-131751585D02*
X-289726234Y-131418252D01*
X-289726234Y-131418252D02*
X-289678615Y-131227776D01*
X-289678615Y-131227776D02*
X-289583377Y-131132538D01*
X-289583377Y-131132538D02*
X-289488139Y-131084919D01*
X-288726234Y-131084919D02*
X-288488139Y-132084919D01*
X-288488139Y-132084919D02*
X-288297663Y-131370633D01*
X-288297663Y-131370633D02*
X-288107187Y-132084919D01*
X-288107187Y-132084919D02*
X-287869092Y-131084919D01*
X-287488139Y-131561109D02*
X-287154806Y-131561109D01*
X-287011949Y-132084919D02*
X-287488139Y-132084919D01*
X-287488139Y-132084919D02*
X-287488139Y-131084919D01*
X-287488139Y-131084919D02*
X-287011949Y-131084919D01*
X-286011949Y-132084919D02*
X-286345282Y-131608728D01*
X-286583377Y-132084919D02*
X-286583377Y-131084919D01*
X-286583377Y-131084919D02*
X-286202425Y-131084919D01*
X-286202425Y-131084919D02*
X-286107187Y-131132538D01*
X-286107187Y-131132538D02*
X-286059568Y-131180157D01*
X-286059568Y-131180157D02*
X-286011949Y-131275395D01*
X-286011949Y-131275395D02*
X-286011949Y-131418252D01*
X-286011949Y-131418252D02*
X-286059568Y-131513490D01*
X-286059568Y-131513490D02*
X-286107187Y-131561109D01*
X-286107187Y-131561109D02*
X-286202425Y-131608728D01*
X-286202425Y-131608728D02*
X-286583377Y-131608728D01*
D11*
X-285845180Y-167823333D02*
X-285130895Y-167823333D01*
X-285130895Y-167823333D02*
X-284988038Y-167870952D01*
X-284988038Y-167870952D02*
X-284892800Y-167966190D01*
X-284892800Y-167966190D02*
X-284845180Y-168109047D01*
X-284845180Y-168109047D02*
X-284845180Y-168204285D01*
X-284845180Y-166823333D02*
X-284845180Y-167394761D01*
X-284845180Y-167109047D02*
X-285845180Y-167109047D01*
X-285845180Y-167109047D02*
X-285702323Y-167204285D01*
X-285702323Y-167204285D02*
X-285607085Y-167299523D01*
X-285607085Y-167299523D02*
X-285559466Y-167394761D01*
X-308233332Y-106607200D02*
X-308090475Y-106654819D01*
X-308090475Y-106654819D02*
X-307852380Y-106654819D01*
X-307852380Y-106654819D02*
X-307757142Y-106607200D01*
X-307757142Y-106607200D02*
X-307709523Y-106559580D01*
X-307709523Y-106559580D02*
X-307661904Y-106464342D01*
X-307661904Y-106464342D02*
X-307661904Y-106369104D01*
X-307661904Y-106369104D02*
X-307709523Y-106273866D01*
X-307709523Y-106273866D02*
X-307757142Y-106226247D01*
X-307757142Y-106226247D02*
X-307852380Y-106178628D01*
X-307852380Y-106178628D02*
X-308042856Y-106131009D01*
X-308042856Y-106131009D02*
X-308138094Y-106083390D01*
X-308138094Y-106083390D02*
X-308185713Y-106035771D01*
X-308185713Y-106035771D02*
X-308233332Y-105940533D01*
X-308233332Y-105940533D02*
X-308233332Y-105845295D01*
X-308233332Y-105845295D02*
X-308185713Y-105750057D01*
X-308185713Y-105750057D02*
X-308138094Y-105702438D01*
X-308138094Y-105702438D02*
X-308042856Y-105654819D01*
X-308042856Y-105654819D02*
X-307804761Y-105654819D01*
X-307804761Y-105654819D02*
X-307661904Y-105702438D01*
X-307328570Y-105654819D02*
X-307090475Y-106654819D01*
X-307090475Y-106654819D02*
X-306899999Y-105940533D01*
X-306899999Y-105940533D02*
X-306709523Y-106654819D01*
X-306709523Y-106654819D02*
X-306471428Y-105654819D01*
X-305614285Y-105654819D02*
X-306090475Y-105654819D01*
X-306090475Y-105654819D02*
X-306138094Y-106131009D01*
X-306138094Y-106131009D02*
X-306090475Y-106083390D01*
X-306090475Y-106083390D02*
X-305995237Y-106035771D01*
X-305995237Y-106035771D02*
X-305757142Y-106035771D01*
X-305757142Y-106035771D02*
X-305661904Y-106083390D01*
X-305661904Y-106083390D02*
X-305614285Y-106131009D01*
X-305614285Y-106131009D02*
X-305566666Y-106226247D01*
X-305566666Y-106226247D02*
X-305566666Y-106464342D01*
X-305566666Y-106464342D02*
X-305614285Y-106559580D01*
X-305614285Y-106559580D02*
X-305661904Y-106607200D01*
X-305661904Y-106607200D02*
X-305757142Y-106654819D01*
X-305757142Y-106654819D02*
X-305995237Y-106654819D01*
X-305995237Y-106654819D02*
X-306090475Y-106607200D01*
X-306090475Y-106607200D02*
X-306138094Y-106559580D01*
X-299049166Y-131797080D02*
X-299096785Y-131844700D01*
X-299096785Y-131844700D02*
X-299239642Y-131892319D01*
X-299239642Y-131892319D02*
X-299334880Y-131892319D01*
X-299334880Y-131892319D02*
X-299477737Y-131844700D01*
X-299477737Y-131844700D02*
X-299572975Y-131749461D01*
X-299572975Y-131749461D02*
X-299620594Y-131654223D01*
X-299620594Y-131654223D02*
X-299668213Y-131463747D01*
X-299668213Y-131463747D02*
X-299668213Y-131320890D01*
X-299668213Y-131320890D02*
X-299620594Y-131130414D01*
X-299620594Y-131130414D02*
X-299572975Y-131035176D01*
X-299572975Y-131035176D02*
X-299477737Y-130939938D01*
X-299477737Y-130939938D02*
X-299334880Y-130892319D01*
X-299334880Y-130892319D02*
X-299239642Y-130892319D01*
X-299239642Y-130892319D02*
X-299096785Y-130939938D01*
X-299096785Y-130939938D02*
X-299049166Y-130987557D01*
X-298192023Y-130892319D02*
X-298382499Y-130892319D01*
X-298382499Y-130892319D02*
X-298477737Y-130939938D01*
X-298477737Y-130939938D02*
X-298525356Y-130987557D01*
X-298525356Y-130987557D02*
X-298620594Y-131130414D01*
X-298620594Y-131130414D02*
X-298668213Y-131320890D01*
X-298668213Y-131320890D02*
X-298668213Y-131701842D01*
X-298668213Y-131701842D02*
X-298620594Y-131797080D01*
X-298620594Y-131797080D02*
X-298572975Y-131844700D01*
X-298572975Y-131844700D02*
X-298477737Y-131892319D01*
X-298477737Y-131892319D02*
X-298287261Y-131892319D01*
X-298287261Y-131892319D02*
X-298192023Y-131844700D01*
X-298192023Y-131844700D02*
X-298144404Y-131797080D01*
X-298144404Y-131797080D02*
X-298096785Y-131701842D01*
X-298096785Y-131701842D02*
X-298096785Y-131463747D01*
X-298096785Y-131463747D02*
X-298144404Y-131368509D01*
X-298144404Y-131368509D02*
X-298192023Y-131320890D01*
X-298192023Y-131320890D02*
X-298287261Y-131273271D01*
X-298287261Y-131273271D02*
X-298477737Y-131273271D01*
X-298477737Y-131273271D02*
X-298572975Y-131320890D01*
X-298572975Y-131320890D02*
X-298620594Y-131368509D01*
X-298620594Y-131368509D02*
X-298668213Y-131463747D01*
X-327916666Y-165074819D02*
X-328249999Y-164598628D01*
X-328488094Y-165074819D02*
X-328488094Y-164074819D01*
X-328488094Y-164074819D02*
X-328107142Y-164074819D01*
X-328107142Y-164074819D02*
X-328011904Y-164122438D01*
X-328011904Y-164122438D02*
X-327964285Y-164170057D01*
X-327964285Y-164170057D02*
X-327916666Y-164265295D01*
X-327916666Y-164265295D02*
X-327916666Y-164408152D01*
X-327916666Y-164408152D02*
X-327964285Y-164503390D01*
X-327964285Y-164503390D02*
X-328011904Y-164551009D01*
X-328011904Y-164551009D02*
X-328107142Y-164598628D01*
X-328107142Y-164598628D02*
X-328488094Y-164598628D01*
X-327059523Y-164408152D02*
X-327059523Y-165074819D01*
X-327297618Y-164027200D02*
X-327535713Y-164741485D01*
X-327535713Y-164741485D02*
X-326916666Y-164741485D01*
X-360215180Y-113488094D02*
X-361215180Y-113488094D01*
X-361215180Y-113488094D02*
X-361215180Y-113249999D01*
X-361215180Y-113249999D02*
X-361167561Y-113107142D01*
X-361167561Y-113107142D02*
X-361072323Y-113011904D01*
X-361072323Y-113011904D02*
X-360977085Y-112964285D01*
X-360977085Y-112964285D02*
X-360786609Y-112916666D01*
X-360786609Y-112916666D02*
X-360643752Y-112916666D01*
X-360643752Y-112916666D02*
X-360453276Y-112964285D01*
X-360453276Y-112964285D02*
X-360358038Y-113011904D01*
X-360358038Y-113011904D02*
X-360262800Y-113107142D01*
X-360262800Y-113107142D02*
X-360215180Y-113249999D01*
X-360215180Y-113249999D02*
X-360215180Y-113488094D01*
X-361215180Y-112011904D02*
X-361215180Y-112488094D01*
X-361215180Y-112488094D02*
X-360738990Y-112535713D01*
X-360738990Y-112535713D02*
X-360786609Y-112488094D01*
X-360786609Y-112488094D02*
X-360834228Y-112392856D01*
X-360834228Y-112392856D02*
X-360834228Y-112154761D01*
X-360834228Y-112154761D02*
X-360786609Y-112059523D01*
X-360786609Y-112059523D02*
X-360738990Y-112011904D01*
X-360738990Y-112011904D02*
X-360643752Y-111964285D01*
X-360643752Y-111964285D02*
X-360405657Y-111964285D01*
X-360405657Y-111964285D02*
X-360310419Y-112011904D01*
X-360310419Y-112011904D02*
X-360262800Y-112059523D01*
X-360262800Y-112059523D02*
X-360215180Y-112154761D01*
X-360215180Y-112154761D02*
X-360215180Y-112392856D01*
X-360215180Y-112392856D02*
X-360262800Y-112488094D01*
X-360262800Y-112488094D02*
X-360310419Y-112535713D01*
X-359895180Y-116821904D02*
X-360895180Y-116821904D01*
X-359895180Y-116250476D02*
X-360466609Y-116679047D01*
X-360895180Y-116250476D02*
X-360323752Y-116821904D01*
X-316786666Y-161334819D02*
X-317119999Y-160858628D01*
X-317358094Y-161334819D02*
X-317358094Y-160334819D01*
X-317358094Y-160334819D02*
X-316977142Y-160334819D01*
X-316977142Y-160334819D02*
X-316881904Y-160382438D01*
X-316881904Y-160382438D02*
X-316834285Y-160430057D01*
X-316834285Y-160430057D02*
X-316786666Y-160525295D01*
X-316786666Y-160525295D02*
X-316786666Y-160668152D01*
X-316786666Y-160668152D02*
X-316834285Y-160763390D01*
X-316834285Y-160763390D02*
X-316881904Y-160811009D01*
X-316881904Y-160811009D02*
X-316977142Y-160858628D01*
X-316977142Y-160858628D02*
X-317358094Y-160858628D01*
X-315834285Y-161334819D02*
X-316405713Y-161334819D01*
X-316119999Y-161334819D02*
X-316119999Y-160334819D01*
X-316119999Y-160334819D02*
X-316215237Y-160477676D01*
X-316215237Y-160477676D02*
X-316310475Y-160572914D01*
X-316310475Y-160572914D02*
X-316405713Y-160620533D01*
X-361415180Y-149666666D02*
X-361891371Y-149999999D01*
X-361415180Y-150238094D02*
X-362415180Y-150238094D01*
X-362415180Y-150238094D02*
X-362415180Y-149857142D01*
X-362415180Y-149857142D02*
X-362367561Y-149761904D01*
X-362367561Y-149761904D02*
X-362319942Y-149714285D01*
X-362319942Y-149714285D02*
X-362224704Y-149666666D01*
X-362224704Y-149666666D02*
X-362081847Y-149666666D01*
X-362081847Y-149666666D02*
X-361986609Y-149714285D01*
X-361986609Y-149714285D02*
X-361938990Y-149761904D01*
X-361938990Y-149761904D02*
X-361891371Y-149857142D01*
X-361891371Y-149857142D02*
X-361891371Y-150238094D01*
X-361986609Y-149095237D02*
X-362034228Y-149190475D01*
X-362034228Y-149190475D02*
X-362081847Y-149238094D01*
X-362081847Y-149238094D02*
X-362177085Y-149285713D01*
X-362177085Y-149285713D02*
X-362224704Y-149285713D01*
X-362224704Y-149285713D02*
X-362319942Y-149238094D01*
X-362319942Y-149238094D02*
X-362367561Y-149190475D01*
X-362367561Y-149190475D02*
X-362415180Y-149095237D01*
X-362415180Y-149095237D02*
X-362415180Y-148904761D01*
X-362415180Y-148904761D02*
X-362367561Y-148809523D01*
X-362367561Y-148809523D02*
X-362319942Y-148761904D01*
X-362319942Y-148761904D02*
X-362224704Y-148714285D01*
X-362224704Y-148714285D02*
X-362177085Y-148714285D01*
X-362177085Y-148714285D02*
X-362081847Y-148761904D01*
X-362081847Y-148761904D02*
X-362034228Y-148809523D01*
X-362034228Y-148809523D02*
X-361986609Y-148904761D01*
X-361986609Y-148904761D02*
X-361986609Y-149095237D01*
X-361986609Y-149095237D02*
X-361938990Y-149190475D01*
X-361938990Y-149190475D02*
X-361891371Y-149238094D01*
X-361891371Y-149238094D02*
X-361796133Y-149285713D01*
X-361796133Y-149285713D02*
X-361605657Y-149285713D01*
X-361605657Y-149285713D02*
X-361510419Y-149238094D01*
X-361510419Y-149238094D02*
X-361462800Y-149190475D01*
X-361462800Y-149190475D02*
X-361415180Y-149095237D01*
X-361415180Y-149095237D02*
X-361415180Y-148904761D01*
X-361415180Y-148904761D02*
X-361462800Y-148809523D01*
X-361462800Y-148809523D02*
X-361510419Y-148761904D01*
X-361510419Y-148761904D02*
X-361605657Y-148714285D01*
X-361605657Y-148714285D02*
X-361796133Y-148714285D01*
X-361796133Y-148714285D02*
X-361891371Y-148761904D01*
X-361891371Y-148761904D02*
X-361938990Y-148809523D01*
X-361938990Y-148809523D02*
X-361986609Y-148904761D01*
X-361415180Y-134746666D02*
X-361891371Y-135079999D01*
X-361415180Y-135318094D02*
X-362415180Y-135318094D01*
X-362415180Y-135318094D02*
X-362415180Y-134937142D01*
X-362415180Y-134937142D02*
X-362367561Y-134841904D01*
X-362367561Y-134841904D02*
X-362319942Y-134794285D01*
X-362319942Y-134794285D02*
X-362224704Y-134746666D01*
X-362224704Y-134746666D02*
X-362081847Y-134746666D01*
X-362081847Y-134746666D02*
X-361986609Y-134794285D01*
X-361986609Y-134794285D02*
X-361938990Y-134841904D01*
X-361938990Y-134841904D02*
X-361891371Y-134937142D01*
X-361891371Y-134937142D02*
X-361891371Y-135318094D01*
X-361415180Y-134270475D02*
X-361415180Y-134079999D01*
X-361415180Y-134079999D02*
X-361462800Y-133984761D01*
X-361462800Y-133984761D02*
X-361510419Y-133937142D01*
X-361510419Y-133937142D02*
X-361653276Y-133841904D01*
X-361653276Y-133841904D02*
X-361843752Y-133794285D01*
X-361843752Y-133794285D02*
X-362224704Y-133794285D01*
X-362224704Y-133794285D02*
X-362319942Y-133841904D01*
X-362319942Y-133841904D02*
X-362367561Y-133889523D01*
X-362367561Y-133889523D02*
X-362415180Y-133984761D01*
X-362415180Y-133984761D02*
X-362415180Y-134175237D01*
X-362415180Y-134175237D02*
X-362367561Y-134270475D01*
X-362367561Y-134270475D02*
X-362319942Y-134318094D01*
X-362319942Y-134318094D02*
X-362224704Y-134365713D01*
X-362224704Y-134365713D02*
X-361986609Y-134365713D01*
X-361986609Y-134365713D02*
X-361891371Y-134318094D01*
X-361891371Y-134318094D02*
X-361843752Y-134270475D01*
X-361843752Y-134270475D02*
X-361796133Y-134175237D01*
X-361796133Y-134175237D02*
X-361796133Y-133984761D01*
X-361796133Y-133984761D02*
X-361843752Y-133889523D01*
X-361843752Y-133889523D02*
X-361891371Y-133841904D01*
X-361891371Y-133841904D02*
X-361986609Y-133794285D01*
X-316839523Y-167154819D02*
X-316839523Y-166154819D01*
X-316839523Y-166154819D02*
X-316506190Y-166869104D01*
X-316506190Y-166869104D02*
X-316172857Y-166154819D01*
X-316172857Y-166154819D02*
X-316172857Y-167154819D01*
X-315791904Y-166154819D02*
X-315172857Y-166154819D01*
X-315172857Y-166154819D02*
X-315506190Y-166535771D01*
X-315506190Y-166535771D02*
X-315363333Y-166535771D01*
X-315363333Y-166535771D02*
X-315268095Y-166583390D01*
X-315268095Y-166583390D02*
X-315220476Y-166631009D01*
X-315220476Y-166631009D02*
X-315172857Y-166726247D01*
X-315172857Y-166726247D02*
X-315172857Y-166964342D01*
X-315172857Y-166964342D02*
X-315220476Y-167059580D01*
X-315220476Y-167059580D02*
X-315268095Y-167107200D01*
X-315268095Y-167107200D02*
X-315363333Y-167154819D01*
X-315363333Y-167154819D02*
X-315649047Y-167154819D01*
X-315649047Y-167154819D02*
X-315744285Y-167107200D01*
X-315744285Y-167107200D02*
X-315791904Y-167059580D01*
X-324633332Y-106607200D02*
X-324490475Y-106654819D01*
X-324490475Y-106654819D02*
X-324252380Y-106654819D01*
X-324252380Y-106654819D02*
X-324157142Y-106607200D01*
X-324157142Y-106607200D02*
X-324109523Y-106559580D01*
X-324109523Y-106559580D02*
X-324061904Y-106464342D01*
X-324061904Y-106464342D02*
X-324061904Y-106369104D01*
X-324061904Y-106369104D02*
X-324109523Y-106273866D01*
X-324109523Y-106273866D02*
X-324157142Y-106226247D01*
X-324157142Y-106226247D02*
X-324252380Y-106178628D01*
X-324252380Y-106178628D02*
X-324442856Y-106131009D01*
X-324442856Y-106131009D02*
X-324538094Y-106083390D01*
X-324538094Y-106083390D02*
X-324585713Y-106035771D01*
X-324585713Y-106035771D02*
X-324633332Y-105940533D01*
X-324633332Y-105940533D02*
X-324633332Y-105845295D01*
X-324633332Y-105845295D02*
X-324585713Y-105750057D01*
X-324585713Y-105750057D02*
X-324538094Y-105702438D01*
X-324538094Y-105702438D02*
X-324442856Y-105654819D01*
X-324442856Y-105654819D02*
X-324204761Y-105654819D01*
X-324204761Y-105654819D02*
X-324061904Y-105702438D01*
X-323728570Y-105654819D02*
X-323490475Y-106654819D01*
X-323490475Y-106654819D02*
X-323299999Y-105940533D01*
X-323299999Y-105940533D02*
X-323109523Y-106654819D01*
X-323109523Y-106654819D02*
X-322871428Y-105654819D01*
X-322061904Y-105654819D02*
X-322252380Y-105654819D01*
X-322252380Y-105654819D02*
X-322347618Y-105702438D01*
X-322347618Y-105702438D02*
X-322395237Y-105750057D01*
X-322395237Y-105750057D02*
X-322490475Y-105892914D01*
X-322490475Y-105892914D02*
X-322538094Y-106083390D01*
X-322538094Y-106083390D02*
X-322538094Y-106464342D01*
X-322538094Y-106464342D02*
X-322490475Y-106559580D01*
X-322490475Y-106559580D02*
X-322442856Y-106607200D01*
X-322442856Y-106607200D02*
X-322347618Y-106654819D01*
X-322347618Y-106654819D02*
X-322157142Y-106654819D01*
X-322157142Y-106654819D02*
X-322061904Y-106607200D01*
X-322061904Y-106607200D02*
X-322014285Y-106559580D01*
X-322014285Y-106559580D02*
X-321966666Y-106464342D01*
X-321966666Y-106464342D02*
X-321966666Y-106226247D01*
X-321966666Y-106226247D02*
X-322014285Y-106131009D01*
X-322014285Y-106131009D02*
X-322061904Y-106083390D01*
X-322061904Y-106083390D02*
X-322157142Y-106035771D01*
X-322157142Y-106035771D02*
X-322347618Y-106035771D01*
X-322347618Y-106035771D02*
X-322442856Y-106083390D01*
X-322442856Y-106083390D02*
X-322490475Y-106131009D01*
X-322490475Y-106131009D02*
X-322538094Y-106226247D01*
X-286665180Y-150546666D02*
X-287141371Y-150879999D01*
X-286665180Y-151118094D02*
X-287665180Y-151118094D01*
X-287665180Y-151118094D02*
X-287665180Y-150737142D01*
X-287665180Y-150737142D02*
X-287617561Y-150641904D01*
X-287617561Y-150641904D02*
X-287569942Y-150594285D01*
X-287569942Y-150594285D02*
X-287474704Y-150546666D01*
X-287474704Y-150546666D02*
X-287331847Y-150546666D01*
X-287331847Y-150546666D02*
X-287236609Y-150594285D01*
X-287236609Y-150594285D02*
X-287188990Y-150641904D01*
X-287188990Y-150641904D02*
X-287141371Y-150737142D01*
X-287141371Y-150737142D02*
X-287141371Y-151118094D01*
X-287665180Y-150213332D02*
X-287665180Y-149594285D01*
X-287665180Y-149594285D02*
X-287284228Y-149927618D01*
X-287284228Y-149927618D02*
X-287284228Y-149784761D01*
X-287284228Y-149784761D02*
X-287236609Y-149689523D01*
X-287236609Y-149689523D02*
X-287188990Y-149641904D01*
X-287188990Y-149641904D02*
X-287093752Y-149594285D01*
X-287093752Y-149594285D02*
X-286855657Y-149594285D01*
X-286855657Y-149594285D02*
X-286760419Y-149641904D01*
X-286760419Y-149641904D02*
X-286712800Y-149689523D01*
X-286712800Y-149689523D02*
X-286665180Y-149784761D01*
X-286665180Y-149784761D02*
X-286665180Y-150070475D01*
X-286665180Y-150070475D02*
X-286712800Y-150165713D01*
X-286712800Y-150165713D02*
X-286760419Y-150213332D01*
X-290186666Y-161839580D02*
X-290234285Y-161887200D01*
X-290234285Y-161887200D02*
X-290377142Y-161934819D01*
X-290377142Y-161934819D02*
X-290472380Y-161934819D01*
X-290472380Y-161934819D02*
X-290615237Y-161887200D01*
X-290615237Y-161887200D02*
X-290710475Y-161791961D01*
X-290710475Y-161791961D02*
X-290758094Y-161696723D01*
X-290758094Y-161696723D02*
X-290805713Y-161506247D01*
X-290805713Y-161506247D02*
X-290805713Y-161363390D01*
X-290805713Y-161363390D02*
X-290758094Y-161172914D01*
X-290758094Y-161172914D02*
X-290710475Y-161077676D01*
X-290710475Y-161077676D02*
X-290615237Y-160982438D01*
X-290615237Y-160982438D02*
X-290472380Y-160934819D01*
X-290472380Y-160934819D02*
X-290377142Y-160934819D01*
X-290377142Y-160934819D02*
X-290234285Y-160982438D01*
X-290234285Y-160982438D02*
X-290186666Y-161030057D01*
X-289853332Y-160934819D02*
X-289186666Y-160934819D01*
X-289186666Y-160934819D02*
X-289615237Y-161934819D01*
X-347424285Y-155989104D02*
X-346948095Y-155989104D01*
X-347519523Y-156274819D02*
X-347186190Y-155274819D01*
X-347186190Y-155274819D02*
X-346852857Y-156274819D01*
X-345995714Y-156274819D02*
X-346567142Y-156274819D01*
X-346281428Y-156274819D02*
X-346281428Y-155274819D01*
X-346281428Y-155274819D02*
X-346376666Y-155417676D01*
X-346376666Y-155417676D02*
X-346471904Y-155512914D01*
X-346471904Y-155512914D02*
X-346567142Y-155560533D01*
X-306358094Y-161904819D02*
X-306358094Y-160904819D01*
X-306358094Y-160904819D02*
X-306119999Y-160904819D01*
X-306119999Y-160904819D02*
X-305977142Y-160952438D01*
X-305977142Y-160952438D02*
X-305881904Y-161047676D01*
X-305881904Y-161047676D02*
X-305834285Y-161142914D01*
X-305834285Y-161142914D02*
X-305786666Y-161333390D01*
X-305786666Y-161333390D02*
X-305786666Y-161476247D01*
X-305786666Y-161476247D02*
X-305834285Y-161666723D01*
X-305834285Y-161666723D02*
X-305881904Y-161761961D01*
X-305881904Y-161761961D02*
X-305977142Y-161857200D01*
X-305977142Y-161857200D02*
X-306119999Y-161904819D01*
X-306119999Y-161904819D02*
X-306358094Y-161904819D01*
X-304834285Y-161904819D02*
X-305405713Y-161904819D01*
X-305119999Y-161904819D02*
X-305119999Y-160904819D01*
X-305119999Y-160904819D02*
X-305215237Y-161047676D01*
X-305215237Y-161047676D02*
X-305310475Y-161142914D01*
X-305310475Y-161142914D02*
X-305405713Y-161190533D01*
X-302071904Y-161534819D02*
X-302071904Y-160534819D01*
X-301500476Y-161534819D02*
X-301929047Y-160963390D01*
X-301500476Y-160534819D02*
X-302071904Y-161106247D01*
X-304839523Y-167154819D02*
X-304839523Y-166154819D01*
X-304839523Y-166154819D02*
X-304506190Y-166869104D01*
X-304506190Y-166869104D02*
X-304172857Y-166154819D01*
X-304172857Y-166154819D02*
X-304172857Y-167154819D01*
X-303744285Y-166250057D02*
X-303696666Y-166202438D01*
X-303696666Y-166202438D02*
X-303601428Y-166154819D01*
X-303601428Y-166154819D02*
X-303363333Y-166154819D01*
X-303363333Y-166154819D02*
X-303268095Y-166202438D01*
X-303268095Y-166202438D02*
X-303220476Y-166250057D01*
X-303220476Y-166250057D02*
X-303172857Y-166345295D01*
X-303172857Y-166345295D02*
X-303172857Y-166440533D01*
X-303172857Y-166440533D02*
X-303220476Y-166583390D01*
X-303220476Y-166583390D02*
X-303791904Y-167154819D01*
X-303791904Y-167154819D02*
X-303172857Y-167154819D01*
X-327916666Y-152324819D02*
X-328249999Y-151848628D01*
X-328488094Y-152324819D02*
X-328488094Y-151324819D01*
X-328488094Y-151324819D02*
X-328107142Y-151324819D01*
X-328107142Y-151324819D02*
X-328011904Y-151372438D01*
X-328011904Y-151372438D02*
X-327964285Y-151420057D01*
X-327964285Y-151420057D02*
X-327916666Y-151515295D01*
X-327916666Y-151515295D02*
X-327916666Y-151658152D01*
X-327916666Y-151658152D02*
X-327964285Y-151753390D01*
X-327964285Y-151753390D02*
X-328011904Y-151801009D01*
X-328011904Y-151801009D02*
X-328107142Y-151848628D01*
X-328107142Y-151848628D02*
X-328488094Y-151848628D01*
X-327011904Y-151324819D02*
X-327488094Y-151324819D01*
X-327488094Y-151324819D02*
X-327535713Y-151801009D01*
X-327535713Y-151801009D02*
X-327488094Y-151753390D01*
X-327488094Y-151753390D02*
X-327392856Y-151705771D01*
X-327392856Y-151705771D02*
X-327154761Y-151705771D01*
X-327154761Y-151705771D02*
X-327059523Y-151753390D01*
X-327059523Y-151753390D02*
X-327011904Y-151801009D01*
X-327011904Y-151801009D02*
X-326964285Y-151896247D01*
X-326964285Y-151896247D02*
X-326964285Y-152134342D01*
X-326964285Y-152134342D02*
X-327011904Y-152229580D01*
X-327011904Y-152229580D02*
X-327059523Y-152277200D01*
X-327059523Y-152277200D02*
X-327154761Y-152324819D01*
X-327154761Y-152324819D02*
X-327392856Y-152324819D01*
X-327392856Y-152324819D02*
X-327488094Y-152277200D01*
X-327488094Y-152277200D02*
X-327535713Y-152229580D01*
X-341033332Y-106607200D02*
X-340890475Y-106654819D01*
X-340890475Y-106654819D02*
X-340652380Y-106654819D01*
X-340652380Y-106654819D02*
X-340557142Y-106607200D01*
X-340557142Y-106607200D02*
X-340509523Y-106559580D01*
X-340509523Y-106559580D02*
X-340461904Y-106464342D01*
X-340461904Y-106464342D02*
X-340461904Y-106369104D01*
X-340461904Y-106369104D02*
X-340509523Y-106273866D01*
X-340509523Y-106273866D02*
X-340557142Y-106226247D01*
X-340557142Y-106226247D02*
X-340652380Y-106178628D01*
X-340652380Y-106178628D02*
X-340842856Y-106131009D01*
X-340842856Y-106131009D02*
X-340938094Y-106083390D01*
X-340938094Y-106083390D02*
X-340985713Y-106035771D01*
X-340985713Y-106035771D02*
X-341033332Y-105940533D01*
X-341033332Y-105940533D02*
X-341033332Y-105845295D01*
X-341033332Y-105845295D02*
X-340985713Y-105750057D01*
X-340985713Y-105750057D02*
X-340938094Y-105702438D01*
X-340938094Y-105702438D02*
X-340842856Y-105654819D01*
X-340842856Y-105654819D02*
X-340604761Y-105654819D01*
X-340604761Y-105654819D02*
X-340461904Y-105702438D01*
X-340128570Y-105654819D02*
X-339890475Y-106654819D01*
X-339890475Y-106654819D02*
X-339699999Y-105940533D01*
X-339699999Y-105940533D02*
X-339509523Y-106654819D01*
X-339509523Y-106654819D02*
X-339271428Y-105654819D01*
X-338985713Y-105654819D02*
X-338319047Y-105654819D01*
X-338319047Y-105654819D02*
X-338747618Y-106654819D01*
X-294186666Y-161839580D02*
X-294234285Y-161887200D01*
X-294234285Y-161887200D02*
X-294377142Y-161934819D01*
X-294377142Y-161934819D02*
X-294472380Y-161934819D01*
X-294472380Y-161934819D02*
X-294615237Y-161887200D01*
X-294615237Y-161887200D02*
X-294710475Y-161791961D01*
X-294710475Y-161791961D02*
X-294758094Y-161696723D01*
X-294758094Y-161696723D02*
X-294805713Y-161506247D01*
X-294805713Y-161506247D02*
X-294805713Y-161363390D01*
X-294805713Y-161363390D02*
X-294758094Y-161172914D01*
X-294758094Y-161172914D02*
X-294710475Y-161077676D01*
X-294710475Y-161077676D02*
X-294615237Y-160982438D01*
X-294615237Y-160982438D02*
X-294472380Y-160934819D01*
X-294472380Y-160934819D02*
X-294377142Y-160934819D01*
X-294377142Y-160934819D02*
X-294234285Y-160982438D01*
X-294234285Y-160982438D02*
X-294186666Y-161030057D01*
X-293615237Y-161363390D02*
X-293710475Y-161315771D01*
X-293710475Y-161315771D02*
X-293758094Y-161268152D01*
X-293758094Y-161268152D02*
X-293805713Y-161172914D01*
X-293805713Y-161172914D02*
X-293805713Y-161125295D01*
X-293805713Y-161125295D02*
X-293758094Y-161030057D01*
X-293758094Y-161030057D02*
X-293710475Y-160982438D01*
X-293710475Y-160982438D02*
X-293615237Y-160934819D01*
X-293615237Y-160934819D02*
X-293424761Y-160934819D01*
X-293424761Y-160934819D02*
X-293329523Y-160982438D01*
X-293329523Y-160982438D02*
X-293281904Y-161030057D01*
X-293281904Y-161030057D02*
X-293234285Y-161125295D01*
X-293234285Y-161125295D02*
X-293234285Y-161172914D01*
X-293234285Y-161172914D02*
X-293281904Y-161268152D01*
X-293281904Y-161268152D02*
X-293329523Y-161315771D01*
X-293329523Y-161315771D02*
X-293424761Y-161363390D01*
X-293424761Y-161363390D02*
X-293615237Y-161363390D01*
X-293615237Y-161363390D02*
X-293710475Y-161411009D01*
X-293710475Y-161411009D02*
X-293758094Y-161458628D01*
X-293758094Y-161458628D02*
X-293805713Y-161553866D01*
X-293805713Y-161553866D02*
X-293805713Y-161744342D01*
X-293805713Y-161744342D02*
X-293758094Y-161839580D01*
X-293758094Y-161839580D02*
X-293710475Y-161887200D01*
X-293710475Y-161887200D02*
X-293615237Y-161934819D01*
X-293615237Y-161934819D02*
X-293424761Y-161934819D01*
X-293424761Y-161934819D02*
X-293329523Y-161887200D01*
X-293329523Y-161887200D02*
X-293281904Y-161839580D01*
X-293281904Y-161839580D02*
X-293234285Y-161744342D01*
X-293234285Y-161744342D02*
X-293234285Y-161553866D01*
X-293234285Y-161553866D02*
X-293281904Y-161458628D01*
X-293281904Y-161458628D02*
X-293329523Y-161411009D01*
X-293329523Y-161411009D02*
X-293424761Y-161363390D01*
X-299049166Y-144797080D02*
X-299096785Y-144844700D01*
X-299096785Y-144844700D02*
X-299239642Y-144892319D01*
X-299239642Y-144892319D02*
X-299334880Y-144892319D01*
X-299334880Y-144892319D02*
X-299477737Y-144844700D01*
X-299477737Y-144844700D02*
X-299572975Y-144749461D01*
X-299572975Y-144749461D02*
X-299620594Y-144654223D01*
X-299620594Y-144654223D02*
X-299668213Y-144463747D01*
X-299668213Y-144463747D02*
X-299668213Y-144320890D01*
X-299668213Y-144320890D02*
X-299620594Y-144130414D01*
X-299620594Y-144130414D02*
X-299572975Y-144035176D01*
X-299572975Y-144035176D02*
X-299477737Y-143939938D01*
X-299477737Y-143939938D02*
X-299334880Y-143892319D01*
X-299334880Y-143892319D02*
X-299239642Y-143892319D01*
X-299239642Y-143892319D02*
X-299096785Y-143939938D01*
X-299096785Y-143939938D02*
X-299049166Y-143987557D01*
X-298096785Y-144892319D02*
X-298668213Y-144892319D01*
X-298382499Y-144892319D02*
X-298382499Y-143892319D01*
X-298382499Y-143892319D02*
X-298477737Y-144035176D01*
X-298477737Y-144035176D02*
X-298572975Y-144130414D01*
X-298572975Y-144130414D02*
X-298668213Y-144178033D01*
X-327916666Y-127074819D02*
X-328249999Y-126598628D01*
X-328488094Y-127074819D02*
X-328488094Y-126074819D01*
X-328488094Y-126074819D02*
X-328107142Y-126074819D01*
X-328107142Y-126074819D02*
X-328011904Y-126122438D01*
X-328011904Y-126122438D02*
X-327964285Y-126170057D01*
X-327964285Y-126170057D02*
X-327916666Y-126265295D01*
X-327916666Y-126265295D02*
X-327916666Y-126408152D01*
X-327916666Y-126408152D02*
X-327964285Y-126503390D01*
X-327964285Y-126503390D02*
X-328011904Y-126551009D01*
X-328011904Y-126551009D02*
X-328107142Y-126598628D01*
X-328107142Y-126598628D02*
X-328488094Y-126598628D01*
X-327583332Y-126074819D02*
X-326916666Y-126074819D01*
X-326916666Y-126074819D02*
X-327345237Y-127074819D01*
X-313286666Y-161334819D02*
X-313762856Y-161334819D01*
X-313762856Y-161334819D02*
X-313762856Y-160334819D01*
X-312429523Y-161334819D02*
X-313000951Y-161334819D01*
X-312715237Y-161334819D02*
X-312715237Y-160334819D01*
X-312715237Y-160334819D02*
X-312810475Y-160477676D01*
X-312810475Y-160477676D02*
X-312905713Y-160572914D01*
X-312905713Y-160572914D02*
X-313000951Y-160620533D01*
X-327916666Y-139824819D02*
X-328249999Y-139348628D01*
X-328488094Y-139824819D02*
X-328488094Y-138824819D01*
X-328488094Y-138824819D02*
X-328107142Y-138824819D01*
X-328107142Y-138824819D02*
X-328011904Y-138872438D01*
X-328011904Y-138872438D02*
X-327964285Y-138920057D01*
X-327964285Y-138920057D02*
X-327916666Y-139015295D01*
X-327916666Y-139015295D02*
X-327916666Y-139158152D01*
X-327916666Y-139158152D02*
X-327964285Y-139253390D01*
X-327964285Y-139253390D02*
X-328011904Y-139301009D01*
X-328011904Y-139301009D02*
X-328107142Y-139348628D01*
X-328107142Y-139348628D02*
X-328488094Y-139348628D01*
X-327059523Y-138824819D02*
X-327249999Y-138824819D01*
X-327249999Y-138824819D02*
X-327345237Y-138872438D01*
X-327345237Y-138872438D02*
X-327392856Y-138920057D01*
X-327392856Y-138920057D02*
X-327488094Y-139062914D01*
X-327488094Y-139062914D02*
X-327535713Y-139253390D01*
X-327535713Y-139253390D02*
X-327535713Y-139634342D01*
X-327535713Y-139634342D02*
X-327488094Y-139729580D01*
X-327488094Y-139729580D02*
X-327440475Y-139777200D01*
X-327440475Y-139777200D02*
X-327345237Y-139824819D01*
X-327345237Y-139824819D02*
X-327154761Y-139824819D01*
X-327154761Y-139824819D02*
X-327059523Y-139777200D01*
X-327059523Y-139777200D02*
X-327011904Y-139729580D01*
X-327011904Y-139729580D02*
X-326964285Y-139634342D01*
X-326964285Y-139634342D02*
X-326964285Y-139396247D01*
X-326964285Y-139396247D02*
X-327011904Y-139301009D01*
X-327011904Y-139301009D02*
X-327059523Y-139253390D01*
X-327059523Y-139253390D02*
X-327154761Y-139205771D01*
X-327154761Y-139205771D02*
X-327345237Y-139205771D01*
X-327345237Y-139205771D02*
X-327440475Y-139253390D01*
X-327440475Y-139253390D02*
X-327488094Y-139301009D01*
X-327488094Y-139301009D02*
X-327535713Y-139396247D01*
X-362261904Y-177954819D02*
X-362261904Y-178764342D01*
X-362261904Y-178764342D02*
X-362214285Y-178859580D01*
X-362214285Y-178859580D02*
X-362166666Y-178907200D01*
X-362166666Y-178907200D02*
X-362071428Y-178954819D01*
X-362071428Y-178954819D02*
X-361880952Y-178954819D01*
X-361880952Y-178954819D02*
X-361785714Y-178907200D01*
X-361785714Y-178907200D02*
X-361738095Y-178859580D01*
X-361738095Y-178859580D02*
X-361690476Y-178764342D01*
X-361690476Y-178764342D02*
X-361690476Y-177954819D01*
X-360785714Y-178288152D02*
X-360785714Y-178954819D01*
X-361023809Y-177907200D02*
X-361261904Y-178621485D01*
X-361261904Y-178621485D02*
X-360642857Y-178621485D01*
X-303149166Y-131797080D02*
X-303196785Y-131844700D01*
X-303196785Y-131844700D02*
X-303339642Y-131892319D01*
X-303339642Y-131892319D02*
X-303434880Y-131892319D01*
X-303434880Y-131892319D02*
X-303577737Y-131844700D01*
X-303577737Y-131844700D02*
X-303672975Y-131749461D01*
X-303672975Y-131749461D02*
X-303720594Y-131654223D01*
X-303720594Y-131654223D02*
X-303768213Y-131463747D01*
X-303768213Y-131463747D02*
X-303768213Y-131320890D01*
X-303768213Y-131320890D02*
X-303720594Y-131130414D01*
X-303720594Y-131130414D02*
X-303672975Y-131035176D01*
X-303672975Y-131035176D02*
X-303577737Y-130939938D01*
X-303577737Y-130939938D02*
X-303434880Y-130892319D01*
X-303434880Y-130892319D02*
X-303339642Y-130892319D01*
X-303339642Y-130892319D02*
X-303196785Y-130939938D01*
X-303196785Y-130939938D02*
X-303149166Y-130987557D01*
X-302244404Y-130892319D02*
X-302720594Y-130892319D01*
X-302720594Y-130892319D02*
X-302768213Y-131368509D01*
X-302768213Y-131368509D02*
X-302720594Y-131320890D01*
X-302720594Y-131320890D02*
X-302625356Y-131273271D01*
X-302625356Y-131273271D02*
X-302387261Y-131273271D01*
X-302387261Y-131273271D02*
X-302292023Y-131320890D01*
X-302292023Y-131320890D02*
X-302244404Y-131368509D01*
X-302244404Y-131368509D02*
X-302196785Y-131463747D01*
X-302196785Y-131463747D02*
X-302196785Y-131701842D01*
X-302196785Y-131701842D02*
X-302244404Y-131797080D01*
X-302244404Y-131797080D02*
X-302292023Y-131844700D01*
X-302292023Y-131844700D02*
X-302387261Y-131892319D01*
X-302387261Y-131892319D02*
X-302625356Y-131892319D01*
X-302625356Y-131892319D02*
X-302720594Y-131844700D01*
X-302720594Y-131844700D02*
X-302768213Y-131797080D01*
X-357408332Y-106582200D02*
X-357265475Y-106629819D01*
X-357265475Y-106629819D02*
X-357027380Y-106629819D01*
X-357027380Y-106629819D02*
X-356932142Y-106582200D01*
X-356932142Y-106582200D02*
X-356884523Y-106534580D01*
X-356884523Y-106534580D02*
X-356836904Y-106439342D01*
X-356836904Y-106439342D02*
X-356836904Y-106344104D01*
X-356836904Y-106344104D02*
X-356884523Y-106248866D01*
X-356884523Y-106248866D02*
X-356932142Y-106201247D01*
X-356932142Y-106201247D02*
X-357027380Y-106153628D01*
X-357027380Y-106153628D02*
X-357217856Y-106106009D01*
X-357217856Y-106106009D02*
X-357313094Y-106058390D01*
X-357313094Y-106058390D02*
X-357360713Y-106010771D01*
X-357360713Y-106010771D02*
X-357408332Y-105915533D01*
X-357408332Y-105915533D02*
X-357408332Y-105820295D01*
X-357408332Y-105820295D02*
X-357360713Y-105725057D01*
X-357360713Y-105725057D02*
X-357313094Y-105677438D01*
X-357313094Y-105677438D02*
X-357217856Y-105629819D01*
X-357217856Y-105629819D02*
X-356979761Y-105629819D01*
X-356979761Y-105629819D02*
X-356836904Y-105677438D01*
X-356503570Y-105629819D02*
X-356265475Y-106629819D01*
X-356265475Y-106629819D02*
X-356074999Y-105915533D01*
X-356074999Y-105915533D02*
X-355884523Y-106629819D01*
X-355884523Y-106629819D02*
X-355646428Y-105629819D01*
X-355122618Y-106058390D02*
X-355217856Y-106010771D01*
X-355217856Y-106010771D02*
X-355265475Y-105963152D01*
X-355265475Y-105963152D02*
X-355313094Y-105867914D01*
X-355313094Y-105867914D02*
X-355313094Y-105820295D01*
X-355313094Y-105820295D02*
X-355265475Y-105725057D01*
X-355265475Y-105725057D02*
X-355217856Y-105677438D01*
X-355217856Y-105677438D02*
X-355122618Y-105629819D01*
X-355122618Y-105629819D02*
X-354932142Y-105629819D01*
X-354932142Y-105629819D02*
X-354836904Y-105677438D01*
X-354836904Y-105677438D02*
X-354789285Y-105725057D01*
X-354789285Y-105725057D02*
X-354741666Y-105820295D01*
X-354741666Y-105820295D02*
X-354741666Y-105867914D01*
X-354741666Y-105867914D02*
X-354789285Y-105963152D01*
X-354789285Y-105963152D02*
X-354836904Y-106010771D01*
X-354836904Y-106010771D02*
X-354932142Y-106058390D01*
X-354932142Y-106058390D02*
X-355122618Y-106058390D01*
X-355122618Y-106058390D02*
X-355217856Y-106106009D01*
X-355217856Y-106106009D02*
X-355265475Y-106153628D01*
X-355265475Y-106153628D02*
X-355313094Y-106248866D01*
X-355313094Y-106248866D02*
X-355313094Y-106439342D01*
X-355313094Y-106439342D02*
X-355265475Y-106534580D01*
X-355265475Y-106534580D02*
X-355217856Y-106582200D01*
X-355217856Y-106582200D02*
X-355122618Y-106629819D01*
X-355122618Y-106629819D02*
X-354932142Y-106629819D01*
X-354932142Y-106629819D02*
X-354836904Y-106582200D01*
X-354836904Y-106582200D02*
X-354789285Y-106534580D01*
X-354789285Y-106534580D02*
X-354741666Y-106439342D01*
X-354741666Y-106439342D02*
X-354741666Y-106248866D01*
X-354741666Y-106248866D02*
X-354789285Y-106153628D01*
X-354789285Y-106153628D02*
X-354836904Y-106106009D01*
X-354836904Y-106106009D02*
X-354932142Y-106058390D01*
X-328839523Y-167154819D02*
X-328839523Y-166154819D01*
X-328839523Y-166154819D02*
X-328506190Y-166869104D01*
X-328506190Y-166869104D02*
X-328172857Y-166154819D01*
X-328172857Y-166154819D02*
X-328172857Y-167154819D01*
X-327268095Y-166488152D02*
X-327268095Y-167154819D01*
X-327506190Y-166107200D02*
X-327744285Y-166821485D01*
X-327744285Y-166821485D02*
X-327125238Y-166821485D01*
X-319192680Y-142674404D02*
X-318383157Y-142674404D01*
X-318383157Y-142674404D02*
X-318287919Y-142626785D01*
X-318287919Y-142626785D02*
X-318240300Y-142579166D01*
X-318240300Y-142579166D02*
X-318192680Y-142483928D01*
X-318192680Y-142483928D02*
X-318192680Y-142293452D01*
X-318192680Y-142293452D02*
X-318240300Y-142198214D01*
X-318240300Y-142198214D02*
X-318287919Y-142150595D01*
X-318287919Y-142150595D02*
X-318383157Y-142102976D01*
X-318383157Y-142102976D02*
X-319192680Y-142102976D01*
X-319097442Y-141674404D02*
X-319145061Y-141626785D01*
X-319145061Y-141626785D02*
X-319192680Y-141531547D01*
X-319192680Y-141531547D02*
X-319192680Y-141293452D01*
X-319192680Y-141293452D02*
X-319145061Y-141198214D01*
X-319145061Y-141198214D02*
X-319097442Y-141150595D01*
X-319097442Y-141150595D02*
X-319002204Y-141102976D01*
X-319002204Y-141102976D02*
X-318906966Y-141102976D01*
X-318906966Y-141102976D02*
X-318764109Y-141150595D01*
X-318764109Y-141150595D02*
X-318192680Y-141722023D01*
X-318192680Y-141722023D02*
X-318192680Y-141102976D01*
X-278988094Y-150734819D02*
X-278988094Y-149734819D01*
X-278988094Y-149734819D02*
X-278749999Y-149734819D01*
X-278749999Y-149734819D02*
X-278607142Y-149782438D01*
X-278607142Y-149782438D02*
X-278511904Y-149877676D01*
X-278511904Y-149877676D02*
X-278464285Y-149972914D01*
X-278464285Y-149972914D02*
X-278416666Y-150163390D01*
X-278416666Y-150163390D02*
X-278416666Y-150306247D01*
X-278416666Y-150306247D02*
X-278464285Y-150496723D01*
X-278464285Y-150496723D02*
X-278511904Y-150591961D01*
X-278511904Y-150591961D02*
X-278607142Y-150687200D01*
X-278607142Y-150687200D02*
X-278749999Y-150734819D01*
X-278749999Y-150734819D02*
X-278988094Y-150734819D01*
X-277559523Y-149734819D02*
X-277749999Y-149734819D01*
X-277749999Y-149734819D02*
X-277845237Y-149782438D01*
X-277845237Y-149782438D02*
X-277892856Y-149830057D01*
X-277892856Y-149830057D02*
X-277988094Y-149972914D01*
X-277988094Y-149972914D02*
X-278035713Y-150163390D01*
X-278035713Y-150163390D02*
X-278035713Y-150544342D01*
X-278035713Y-150544342D02*
X-277988094Y-150639580D01*
X-277988094Y-150639580D02*
X-277940475Y-150687200D01*
X-277940475Y-150687200D02*
X-277845237Y-150734819D01*
X-277845237Y-150734819D02*
X-277654761Y-150734819D01*
X-277654761Y-150734819D02*
X-277559523Y-150687200D01*
X-277559523Y-150687200D02*
X-277511904Y-150639580D01*
X-277511904Y-150639580D02*
X-277464285Y-150544342D01*
X-277464285Y-150544342D02*
X-277464285Y-150306247D01*
X-277464285Y-150306247D02*
X-277511904Y-150211009D01*
X-277511904Y-150211009D02*
X-277559523Y-150163390D01*
X-277559523Y-150163390D02*
X-277654761Y-150115771D01*
X-277654761Y-150115771D02*
X-277845237Y-150115771D01*
X-277845237Y-150115771D02*
X-277940475Y-150163390D01*
X-277940475Y-150163390D02*
X-277988094Y-150211009D01*
X-277988094Y-150211009D02*
X-278035713Y-150306247D01*
X-282321904Y-151104819D02*
X-282321904Y-150104819D01*
X-281750476Y-151104819D02*
X-282179047Y-150533390D01*
X-281750476Y-150104819D02*
X-282321904Y-150676247D01*
X-327465180Y-113548094D02*
X-328465180Y-113548094D01*
X-328465180Y-113548094D02*
X-328465180Y-113309999D01*
X-328465180Y-113309999D02*
X-328417561Y-113167142D01*
X-328417561Y-113167142D02*
X-328322323Y-113071904D01*
X-328322323Y-113071904D02*
X-328227085Y-113024285D01*
X-328227085Y-113024285D02*
X-328036609Y-112976666D01*
X-328036609Y-112976666D02*
X-327893752Y-112976666D01*
X-327893752Y-112976666D02*
X-327703276Y-113024285D01*
X-327703276Y-113024285D02*
X-327608038Y-113071904D01*
X-327608038Y-113071904D02*
X-327512800Y-113167142D01*
X-327512800Y-113167142D02*
X-327465180Y-113309999D01*
X-327465180Y-113309999D02*
X-327465180Y-113548094D01*
X-328465180Y-112643332D02*
X-328465180Y-112024285D01*
X-328465180Y-112024285D02*
X-328084228Y-112357618D01*
X-328084228Y-112357618D02*
X-328084228Y-112214761D01*
X-328084228Y-112214761D02*
X-328036609Y-112119523D01*
X-328036609Y-112119523D02*
X-327988990Y-112071904D01*
X-327988990Y-112071904D02*
X-327893752Y-112024285D01*
X-327893752Y-112024285D02*
X-327655657Y-112024285D01*
X-327655657Y-112024285D02*
X-327560419Y-112071904D01*
X-327560419Y-112071904D02*
X-327512800Y-112119523D01*
X-327512800Y-112119523D02*
X-327465180Y-112214761D01*
X-327465180Y-112214761D02*
X-327465180Y-112500475D01*
X-327465180Y-112500475D02*
X-327512800Y-112595713D01*
X-327512800Y-112595713D02*
X-327560419Y-112643332D01*
X-327145180Y-116881904D02*
X-328145180Y-116881904D01*
X-327145180Y-116310476D02*
X-327716609Y-116739047D01*
X-328145180Y-116310476D02*
X-327573752Y-116881904D01*
X-308844404Y-143992319D02*
X-308844404Y-144801842D01*
X-308844404Y-144801842D02*
X-308796785Y-144897080D01*
X-308796785Y-144897080D02*
X-308749166Y-144944700D01*
X-308749166Y-144944700D02*
X-308653928Y-144992319D01*
X-308653928Y-144992319D02*
X-308463452Y-144992319D01*
X-308463452Y-144992319D02*
X-308368214Y-144944700D01*
X-308368214Y-144944700D02*
X-308320595Y-144897080D01*
X-308320595Y-144897080D02*
X-308272976Y-144801842D01*
X-308272976Y-144801842D02*
X-308272976Y-143992319D01*
X-307272976Y-144992319D02*
X-307844404Y-144992319D01*
X-307558690Y-144992319D02*
X-307558690Y-143992319D01*
X-307558690Y-143992319D02*
X-307653928Y-144135176D01*
X-307653928Y-144135176D02*
X-307749166Y-144230414D01*
X-307749166Y-144230414D02*
X-307844404Y-144278033D01*
X-303149166Y-144897080D02*
X-303196785Y-144944700D01*
X-303196785Y-144944700D02*
X-303339642Y-144992319D01*
X-303339642Y-144992319D02*
X-303434880Y-144992319D01*
X-303434880Y-144992319D02*
X-303577737Y-144944700D01*
X-303577737Y-144944700D02*
X-303672975Y-144849461D01*
X-303672975Y-144849461D02*
X-303720594Y-144754223D01*
X-303720594Y-144754223D02*
X-303768213Y-144563747D01*
X-303768213Y-144563747D02*
X-303768213Y-144420890D01*
X-303768213Y-144420890D02*
X-303720594Y-144230414D01*
X-303720594Y-144230414D02*
X-303672975Y-144135176D01*
X-303672975Y-144135176D02*
X-303577737Y-144039938D01*
X-303577737Y-144039938D02*
X-303434880Y-143992319D01*
X-303434880Y-143992319D02*
X-303339642Y-143992319D01*
X-303339642Y-143992319D02*
X-303196785Y-144039938D01*
X-303196785Y-144039938D02*
X-303149166Y-144087557D01*
X-302768213Y-144087557D02*
X-302720594Y-144039938D01*
X-302720594Y-144039938D02*
X-302625356Y-143992319D01*
X-302625356Y-143992319D02*
X-302387261Y-143992319D01*
X-302387261Y-143992319D02*
X-302292023Y-144039938D01*
X-302292023Y-144039938D02*
X-302244404Y-144087557D01*
X-302244404Y-144087557D02*
X-302196785Y-144182795D01*
X-302196785Y-144182795D02*
X-302196785Y-144278033D01*
X-302196785Y-144278033D02*
X-302244404Y-144420890D01*
X-302244404Y-144420890D02*
X-302815832Y-144992319D01*
X-302815832Y-144992319D02*
X-302196785Y-144992319D01*
X-286027680Y-147104166D02*
X-286503871Y-147437499D01*
X-286027680Y-147675594D02*
X-287027680Y-147675594D01*
X-287027680Y-147675594D02*
X-287027680Y-147294642D01*
X-287027680Y-147294642D02*
X-286980061Y-147199404D01*
X-286980061Y-147199404D02*
X-286932442Y-147151785D01*
X-286932442Y-147151785D02*
X-286837204Y-147104166D01*
X-286837204Y-147104166D02*
X-286694347Y-147104166D01*
X-286694347Y-147104166D02*
X-286599109Y-147151785D01*
X-286599109Y-147151785D02*
X-286551490Y-147199404D01*
X-286551490Y-147199404D02*
X-286503871Y-147294642D01*
X-286503871Y-147294642D02*
X-286503871Y-147675594D01*
X-286932442Y-146723213D02*
X-286980061Y-146675594D01*
X-286980061Y-146675594D02*
X-287027680Y-146580356D01*
X-287027680Y-146580356D02*
X-287027680Y-146342261D01*
X-287027680Y-146342261D02*
X-286980061Y-146247023D01*
X-286980061Y-146247023D02*
X-286932442Y-146199404D01*
X-286932442Y-146199404D02*
X-286837204Y-146151785D01*
X-286837204Y-146151785D02*
X-286741966Y-146151785D01*
X-286741966Y-146151785D02*
X-286599109Y-146199404D01*
X-286599109Y-146199404D02*
X-286027680Y-146770832D01*
X-286027680Y-146770832D02*
X-286027680Y-146151785D01*
X-343965180Y-113298094D02*
X-344965180Y-113298094D01*
X-344965180Y-113298094D02*
X-344965180Y-113059999D01*
X-344965180Y-113059999D02*
X-344917561Y-112917142D01*
X-344917561Y-112917142D02*
X-344822323Y-112821904D01*
X-344822323Y-112821904D02*
X-344727085Y-112774285D01*
X-344727085Y-112774285D02*
X-344536609Y-112726666D01*
X-344536609Y-112726666D02*
X-344393752Y-112726666D01*
X-344393752Y-112726666D02*
X-344203276Y-112774285D01*
X-344203276Y-112774285D02*
X-344108038Y-112821904D01*
X-344108038Y-112821904D02*
X-344012800Y-112917142D01*
X-344012800Y-112917142D02*
X-343965180Y-113059999D01*
X-343965180Y-113059999D02*
X-343965180Y-113298094D01*
X-344631847Y-111869523D02*
X-343965180Y-111869523D01*
X-345012800Y-112107618D02*
X-344298514Y-112345713D01*
X-344298514Y-112345713D02*
X-344298514Y-111726666D01*
X-343645180Y-116631904D02*
X-344645180Y-116631904D01*
X-343645180Y-116060476D02*
X-344216609Y-116489047D01*
X-344645180Y-116060476D02*
X-344073752Y-116631904D01*
X-359945180Y-142561904D02*
X-359135657Y-142561904D01*
X-359135657Y-142561904D02*
X-359040419Y-142514285D01*
X-359040419Y-142514285D02*
X-358992800Y-142466666D01*
X-358992800Y-142466666D02*
X-358945180Y-142371428D01*
X-358945180Y-142371428D02*
X-358945180Y-142180952D01*
X-358945180Y-142180952D02*
X-358992800Y-142085714D01*
X-358992800Y-142085714D02*
X-359040419Y-142038095D01*
X-359040419Y-142038095D02*
X-359135657Y-141990476D01*
X-359135657Y-141990476D02*
X-359945180Y-141990476D01*
X-359945180Y-141609523D02*
X-359945180Y-140990476D01*
X-359945180Y-140990476D02*
X-359564228Y-141323809D01*
X-359564228Y-141323809D02*
X-359564228Y-141180952D01*
X-359564228Y-141180952D02*
X-359516609Y-141085714D01*
X-359516609Y-141085714D02*
X-359468990Y-141038095D01*
X-359468990Y-141038095D02*
X-359373752Y-140990476D01*
X-359373752Y-140990476D02*
X-359135657Y-140990476D01*
X-359135657Y-140990476D02*
X-359040419Y-141038095D01*
X-359040419Y-141038095D02*
X-358992800Y-141085714D01*
X-358992800Y-141085714D02*
X-358945180Y-141180952D01*
X-358945180Y-141180952D02*
X-358945180Y-141466666D01*
X-358945180Y-141466666D02*
X-358992800Y-141561904D01*
X-358992800Y-141561904D02*
X-359040419Y-141609523D01*
X-311215180Y-113488094D02*
X-312215180Y-113488094D01*
X-312215180Y-113488094D02*
X-312215180Y-113249999D01*
X-312215180Y-113249999D02*
X-312167561Y-113107142D01*
X-312167561Y-113107142D02*
X-312072323Y-113011904D01*
X-312072323Y-113011904D02*
X-311977085Y-112964285D01*
X-311977085Y-112964285D02*
X-311786609Y-112916666D01*
X-311786609Y-112916666D02*
X-311643752Y-112916666D01*
X-311643752Y-112916666D02*
X-311453276Y-112964285D01*
X-311453276Y-112964285D02*
X-311358038Y-113011904D01*
X-311358038Y-113011904D02*
X-311262800Y-113107142D01*
X-311262800Y-113107142D02*
X-311215180Y-113249999D01*
X-311215180Y-113249999D02*
X-311215180Y-113488094D01*
X-312119942Y-112535713D02*
X-312167561Y-112488094D01*
X-312167561Y-112488094D02*
X-312215180Y-112392856D01*
X-312215180Y-112392856D02*
X-312215180Y-112154761D01*
X-312215180Y-112154761D02*
X-312167561Y-112059523D01*
X-312167561Y-112059523D02*
X-312119942Y-112011904D01*
X-312119942Y-112011904D02*
X-312024704Y-111964285D01*
X-312024704Y-111964285D02*
X-311929466Y-111964285D01*
X-311929466Y-111964285D02*
X-311786609Y-112011904D01*
X-311786609Y-112011904D02*
X-311215180Y-112583332D01*
X-311215180Y-112583332D02*
X-311215180Y-111964285D01*
X-310895180Y-116821904D02*
X-311895180Y-116821904D01*
X-310895180Y-116250476D02*
X-311466609Y-116679047D01*
X-311895180Y-116250476D02*
X-311323752Y-116821904D01*
X-306249166Y-144897080D02*
X-306296785Y-144944700D01*
X-306296785Y-144944700D02*
X-306439642Y-144992319D01*
X-306439642Y-144992319D02*
X-306534880Y-144992319D01*
X-306534880Y-144992319D02*
X-306677737Y-144944700D01*
X-306677737Y-144944700D02*
X-306772975Y-144849461D01*
X-306772975Y-144849461D02*
X-306820594Y-144754223D01*
X-306820594Y-144754223D02*
X-306868213Y-144563747D01*
X-306868213Y-144563747D02*
X-306868213Y-144420890D01*
X-306868213Y-144420890D02*
X-306820594Y-144230414D01*
X-306820594Y-144230414D02*
X-306772975Y-144135176D01*
X-306772975Y-144135176D02*
X-306677737Y-144039938D01*
X-306677737Y-144039938D02*
X-306534880Y-143992319D01*
X-306534880Y-143992319D02*
X-306439642Y-143992319D01*
X-306439642Y-143992319D02*
X-306296785Y-144039938D01*
X-306296785Y-144039938D02*
X-306249166Y-144087557D01*
X-305915832Y-143992319D02*
X-305296785Y-143992319D01*
X-305296785Y-143992319D02*
X-305630118Y-144373271D01*
X-305630118Y-144373271D02*
X-305487261Y-144373271D01*
X-305487261Y-144373271D02*
X-305392023Y-144420890D01*
X-305392023Y-144420890D02*
X-305344404Y-144468509D01*
X-305344404Y-144468509D02*
X-305296785Y-144563747D01*
X-305296785Y-144563747D02*
X-305296785Y-144801842D01*
X-305296785Y-144801842D02*
X-305344404Y-144897080D01*
X-305344404Y-144897080D02*
X-305392023Y-144944700D01*
X-305392023Y-144944700D02*
X-305487261Y-144992319D01*
X-305487261Y-144992319D02*
X-305772975Y-144992319D01*
X-305772975Y-144992319D02*
X-305868213Y-144944700D01*
X-305868213Y-144944700D02*
X-305915832Y-144897080D01*
X-298186666Y-161839580D02*
X-298234285Y-161887200D01*
X-298234285Y-161887200D02*
X-298377142Y-161934819D01*
X-298377142Y-161934819D02*
X-298472380Y-161934819D01*
X-298472380Y-161934819D02*
X-298615237Y-161887200D01*
X-298615237Y-161887200D02*
X-298710475Y-161791961D01*
X-298710475Y-161791961D02*
X-298758094Y-161696723D01*
X-298758094Y-161696723D02*
X-298805713Y-161506247D01*
X-298805713Y-161506247D02*
X-298805713Y-161363390D01*
X-298805713Y-161363390D02*
X-298758094Y-161172914D01*
X-298758094Y-161172914D02*
X-298710475Y-161077676D01*
X-298710475Y-161077676D02*
X-298615237Y-160982438D01*
X-298615237Y-160982438D02*
X-298472380Y-160934819D01*
X-298472380Y-160934819D02*
X-298377142Y-160934819D01*
X-298377142Y-160934819D02*
X-298234285Y-160982438D01*
X-298234285Y-160982438D02*
X-298186666Y-161030057D01*
X-297710475Y-161934819D02*
X-297519999Y-161934819D01*
X-297519999Y-161934819D02*
X-297424761Y-161887200D01*
X-297424761Y-161887200D02*
X-297377142Y-161839580D01*
X-297377142Y-161839580D02*
X-297281904Y-161696723D01*
X-297281904Y-161696723D02*
X-297234285Y-161506247D01*
X-297234285Y-161506247D02*
X-297234285Y-161125295D01*
X-297234285Y-161125295D02*
X-297281904Y-161030057D01*
X-297281904Y-161030057D02*
X-297329523Y-160982438D01*
X-297329523Y-160982438D02*
X-297424761Y-160934819D01*
X-297424761Y-160934819D02*
X-297615237Y-160934819D01*
X-297615237Y-160934819D02*
X-297710475Y-160982438D01*
X-297710475Y-160982438D02*
X-297758094Y-161030057D01*
X-297758094Y-161030057D02*
X-297805713Y-161125295D01*
X-297805713Y-161125295D02*
X-297805713Y-161363390D01*
X-297805713Y-161363390D02*
X-297758094Y-161458628D01*
X-297758094Y-161458628D02*
X-297710475Y-161506247D01*
X-297710475Y-161506247D02*
X-297615237Y-161553866D01*
X-297615237Y-161553866D02*
X-297424761Y-161553866D01*
X-297424761Y-161553866D02*
X-297329523Y-161506247D01*
X-297329523Y-161506247D02*
X-297281904Y-161458628D01*
X-297281904Y-161458628D02*
X-297234285Y-161363390D01*
X-307149166Y-131797080D02*
X-307196785Y-131844700D01*
X-307196785Y-131844700D02*
X-307339642Y-131892319D01*
X-307339642Y-131892319D02*
X-307434880Y-131892319D01*
X-307434880Y-131892319D02*
X-307577737Y-131844700D01*
X-307577737Y-131844700D02*
X-307672975Y-131749461D01*
X-307672975Y-131749461D02*
X-307720594Y-131654223D01*
X-307720594Y-131654223D02*
X-307768213Y-131463747D01*
X-307768213Y-131463747D02*
X-307768213Y-131320890D01*
X-307768213Y-131320890D02*
X-307720594Y-131130414D01*
X-307720594Y-131130414D02*
X-307672975Y-131035176D01*
X-307672975Y-131035176D02*
X-307577737Y-130939938D01*
X-307577737Y-130939938D02*
X-307434880Y-130892319D01*
X-307434880Y-130892319D02*
X-307339642Y-130892319D01*
X-307339642Y-130892319D02*
X-307196785Y-130939938D01*
X-307196785Y-130939938D02*
X-307149166Y-130987557D01*
X-306292023Y-131225652D02*
X-306292023Y-131892319D01*
X-306530118Y-130844700D02*
X-306768213Y-131558985D01*
X-306768213Y-131558985D02*
X-306149166Y-131558985D01*
X-292839523Y-167154819D02*
X-292839523Y-166154819D01*
X-292839523Y-166154819D02*
X-292506190Y-166869104D01*
X-292506190Y-166869104D02*
X-292172857Y-166154819D01*
X-292172857Y-166154819D02*
X-292172857Y-167154819D01*
X-291172857Y-167154819D02*
X-291744285Y-167154819D01*
X-291458571Y-167154819D02*
X-291458571Y-166154819D01*
X-291458571Y-166154819D02*
X-291553809Y-166297676D01*
X-291553809Y-166297676D02*
X-291649047Y-166392914D01*
X-291649047Y-166392914D02*
X-291744285Y-166440533D01*
%TO.C,J1*%
D12*
X-273355000Y-175240000D02*
X-273355000Y-161240000D01*
X-273355000Y-161240000D02*
X-274560000Y-161240000D01*
X-274560000Y-161240000D02*
X-274560000Y-155470000D01*
X-274560000Y-155470000D02*
X-282040000Y-155470000D01*
X-282040000Y-161240000D02*
X-283245000Y-161240000D01*
X-282040000Y-155470000D02*
X-282040000Y-161240000D01*
X-283245000Y-161240000D02*
X-283245000Y-175240000D01*
%TO.C,SW5*%
X-300550000Y-107500000D02*
X-300550000Y-107000000D01*
X-300550000Y-102800000D02*
X-300550000Y-99800000D01*
X-300550000Y-99800000D02*
X-313250000Y-99800000D01*
X-301400000Y-107500000D02*
X-300550000Y-107500000D01*
X-302200000Y-105110000D02*
X-311600000Y-105110000D01*
X-313250000Y-107500000D02*
X-312400000Y-107500000D01*
X-313250000Y-106800000D02*
X-313250000Y-107500000D01*
X-313250000Y-99800000D02*
X-313250000Y-102850000D01*
%TO.C,C6*%
X-300207500Y-132212500D02*
X-297467500Y-132212500D01*
X-300207500Y-137452500D02*
X-300207500Y-132212500D01*
X-297467500Y-132212500D02*
X-297467500Y-137452500D01*
X-297467500Y-137452500D02*
X-300207500Y-137452500D01*
%TO.C,R4*%
X-331790000Y-162250000D02*
X-331020000Y-162250000D01*
X-323710000Y-162250000D02*
X-324480000Y-162250000D01*
X-331020000Y-160880000D02*
X-324480000Y-160880000D01*
X-324480000Y-163620000D01*
X-331020000Y-163620000D01*
X-331020000Y-160880000D01*
%TO.C,D5*%
X-359670000Y-110630000D02*
X-359670000Y-114870000D01*
X-359670000Y-114870000D02*
X-357430000Y-114870000D01*
X-359439000Y-113512000D02*
X-357661000Y-113512000D01*
X-358550000Y-109980000D02*
X-358550000Y-110630000D01*
X-358550000Y-110630000D02*
X-358550000Y-111924500D01*
X-358550000Y-114909000D02*
X-358550000Y-113512000D01*
X-358550000Y-115520000D02*
X-358550000Y-114870000D01*
X-357430000Y-110630000D02*
X-359670000Y-110630000D01*
X-357430000Y-114870000D02*
X-357430000Y-110630000D01*
D10*
X-358550000Y-113512000D02*
X-359439000Y-111988000D01*
X-357661000Y-111988000D01*
X-358550000Y-113512000D01*
G36*
X-358550000Y-113512000D02*
G01*
X-359439000Y-111988000D01*
X-357661000Y-111988000D01*
X-358550000Y-113512000D01*
G37*
%TO.C,R1*%
D12*
X-316620000Y-149840000D02*
X-316620000Y-150610000D01*
X-316620000Y-157920000D02*
X-316620000Y-157150000D01*
X-317990000Y-150610000D02*
X-315250000Y-150610000D01*
X-315250000Y-157150000D01*
X-317990000Y-157150000D01*
X-317990000Y-150610000D01*
%TO.C,R8*%
X-359500000Y-145460000D02*
X-359500000Y-146230000D01*
X-359500000Y-153540000D02*
X-359500000Y-152770000D01*
X-360870000Y-146230000D02*
X-358130000Y-146230000D01*
X-358130000Y-152770000D01*
X-360870000Y-152770000D01*
X-360870000Y-146230000D01*
%TO.C,R9*%
X-359500000Y-130540000D02*
X-359500000Y-131310000D01*
X-359500000Y-138620000D02*
X-359500000Y-137850000D01*
X-360870000Y-131310000D02*
X-358130000Y-131310000D01*
X-358130000Y-137850000D01*
X-360870000Y-137850000D01*
X-360870000Y-131310000D01*
%TO.C,M3*%
X-321380000Y-167650000D02*
X-315630000Y-167650000D01*
X-321380000Y-173650000D02*
X-321380000Y-167650000D01*
X-320030000Y-172540000D02*
X-314950000Y-172540000D01*
X-320030000Y-173550000D02*
X-320030000Y-172540000D01*
X-314950000Y-172540000D02*
X-314950000Y-173550000D01*
X-314280000Y-167700000D02*
X-311080000Y-167700000D01*
X-311080000Y-167700000D02*
X-311080000Y-173650000D01*
X-311080000Y-173650000D02*
X-321380000Y-173650000D01*
%TO.C,SW6*%
X-329650000Y-99800000D02*
X-329650000Y-102850000D01*
X-329650000Y-106800000D02*
X-329650000Y-107500000D01*
X-329650000Y-107500000D02*
X-328800000Y-107500000D01*
X-318600000Y-105110000D02*
X-328000000Y-105110000D01*
X-317800000Y-107500000D02*
X-316950000Y-107500000D01*
X-316950000Y-99800000D02*
X-329650000Y-99800000D01*
X-316950000Y-102800000D02*
X-316950000Y-99800000D01*
X-316950000Y-107500000D02*
X-316950000Y-107000000D01*
%TO.C,R3*%
X-298080000Y-150380000D02*
X-297310000Y-150380000D01*
X-290000000Y-150380000D02*
X-290770000Y-150380000D01*
X-297310000Y-149010000D02*
X-290770000Y-149010000D01*
X-290770000Y-151750000D01*
X-297310000Y-151750000D01*
X-297310000Y-149010000D01*
%TO.C,C7*%
X-291390000Y-155110000D02*
X-288650000Y-155110000D01*
X-291390000Y-160350000D02*
X-291390000Y-155110000D01*
X-288650000Y-155110000D02*
X-288650000Y-160350000D01*
X-288650000Y-160350000D02*
X-291390000Y-160350000D01*
%TO.C,A1*%
X-356600000Y-174800000D02*
X-349606666Y-174800000D01*
X-356599999Y-123640000D02*
X-356600000Y-174800000D01*
X-353410000Y-174770000D02*
X-353410000Y-123720000D01*
X-349606666Y-170850000D02*
X-349606666Y-174800000D01*
X-349606666Y-174800000D02*
X-349606666Y-176020000D01*
X-349606666Y-176020000D02*
X-342613334Y-176020000D01*
X-342613334Y-170850000D02*
X-349606666Y-170850000D01*
X-342613334Y-174800000D02*
X-342613334Y-170850000D01*
X-342613334Y-174800000D02*
X-335620001Y-174800000D01*
X-342613334Y-176020000D02*
X-342613334Y-174800000D01*
X-338810000Y-174770000D02*
X-338810000Y-123670000D01*
X-335620001Y-174800000D02*
X-335620000Y-123640000D01*
X-335620000Y-123640000D02*
X-356599999Y-123640000D01*
%TO.C,D1*%
X-308340000Y-157510000D02*
X-308340000Y-157640000D01*
X-308340000Y-160450000D02*
X-308340000Y-160320000D01*
X-306763000Y-158980000D02*
X-308033000Y-158980000D01*
X-304604000Y-158980000D02*
X-303207000Y-158980000D01*
D13*
X-304604000Y-160123000D02*
X-304604000Y-157837000D01*
D12*
X-302900000Y-157510000D02*
X-308340000Y-157510000D01*
X-302900000Y-157640000D02*
X-302900000Y-157510000D01*
X-302900000Y-160320000D02*
X-302900000Y-160450000D01*
X-302900000Y-160450000D02*
X-308340000Y-160450000D01*
D10*
X-304604000Y-158980000D02*
X-306763000Y-160123000D01*
X-306763000Y-157837000D01*
X-304604000Y-158980000D01*
G36*
X-304604000Y-158980000D02*
G01*
X-306763000Y-160123000D01*
X-306763000Y-157837000D01*
X-304604000Y-158980000D01*
G37*
%TO.C,M2*%
D12*
X-309380000Y-167650000D02*
X-303630000Y-167650000D01*
X-309380000Y-173650000D02*
X-309380000Y-167650000D01*
X-308030000Y-172540000D02*
X-302950000Y-172540000D01*
X-308030000Y-173550000D02*
X-308030000Y-172540000D01*
X-302950000Y-172540000D02*
X-302950000Y-173550000D01*
X-302280000Y-167700000D02*
X-299080000Y-167700000D01*
X-299080000Y-167700000D02*
X-299080000Y-173650000D01*
X-299080000Y-173650000D02*
X-309380000Y-173650000D01*
%TO.C,R5*%
X-331790000Y-149500000D02*
X-331020000Y-149500000D01*
X-323710000Y-149500000D02*
X-324480000Y-149500000D01*
X-331020000Y-148130000D02*
X-324480000Y-148130000D01*
X-324480000Y-150870000D01*
X-331020000Y-150870000D01*
X-331020000Y-148130000D01*
%TO.C,SW7*%
X-346050000Y-99800000D02*
X-346050000Y-102850000D01*
X-346050000Y-106800000D02*
X-346050000Y-107500000D01*
X-346050000Y-107500000D02*
X-345200000Y-107500000D01*
X-335000000Y-105110000D02*
X-344400000Y-105110000D01*
X-334200000Y-107500000D02*
X-333350000Y-107500000D01*
X-333350000Y-99800000D02*
X-346050000Y-99800000D01*
X-333350000Y-102800000D02*
X-333350000Y-99800000D01*
X-333350000Y-107500000D02*
X-333350000Y-107000000D01*
%TO.C,C8*%
X-295440000Y-155110000D02*
X-292700000Y-155110000D01*
X-295440000Y-160350000D02*
X-295440000Y-155110000D01*
X-292700000Y-155110000D02*
X-292700000Y-160350000D01*
X-292700000Y-160350000D02*
X-295440000Y-160350000D01*
%TO.C,C1*%
X-300307500Y-138212500D02*
X-297567500Y-138212500D01*
X-300307500Y-143452500D02*
X-300307500Y-138212500D01*
X-297567500Y-138212500D02*
X-297567500Y-143452500D01*
X-297567500Y-143452500D02*
X-300307500Y-143452500D01*
%TO.C,R7*%
X-331790000Y-124250000D02*
X-331020000Y-124250000D01*
X-323710000Y-124250000D02*
X-324480000Y-124250000D01*
X-331020000Y-122880000D02*
X-324480000Y-122880000D01*
X-324480000Y-125620000D01*
X-331020000Y-125620000D01*
X-331020000Y-122880000D01*
%TO.C,L1*%
X-313120000Y-149840000D02*
X-313120000Y-151110000D01*
X-313120000Y-157920000D02*
X-313120000Y-156650000D01*
X-314340000Y-151110000D02*
X-311900000Y-151110000D01*
X-311900000Y-156650000D01*
X-314340000Y-156650000D01*
X-314340000Y-151110000D01*
%TO.C,R6*%
X-331790000Y-137000000D02*
X-331020000Y-137000000D01*
X-323710000Y-137000000D02*
X-324480000Y-137000000D01*
X-331020000Y-135630000D02*
X-324480000Y-135630000D01*
X-324480000Y-138370000D01*
X-331020000Y-138370000D01*
X-331020000Y-135630000D01*
%TO.C,U4*%
X-359430000Y-171650000D02*
X-363030000Y-171650000D01*
X-361230000Y-176100000D02*
G75*
G02*
X-363068478Y-171661522I0J2600000D01*
G01*
X-359391522Y-171661522D02*
G75*
G02*
X-361230000Y-176100001I-1838478J-1838478D01*
G01*
%TO.C,C5*%
X-304257500Y-132212500D02*
X-301517500Y-132212500D01*
X-304257500Y-137452500D02*
X-304257500Y-132212500D01*
X-301517500Y-132212500D02*
X-301517500Y-137452500D01*
X-301517500Y-137452500D02*
X-304257500Y-137452500D01*
%TO.C,SW8*%
X-362425000Y-99775000D02*
X-362425000Y-102825000D01*
X-362425000Y-106775000D02*
X-362425000Y-107475000D01*
X-362425000Y-107475000D02*
X-361575000Y-107475000D01*
X-351375000Y-105085000D02*
X-360775000Y-105085000D01*
X-350575000Y-107475000D02*
X-349725000Y-107475000D01*
X-349725000Y-99775000D02*
X-362425000Y-99775000D01*
X-349725000Y-102775000D02*
X-349725000Y-99775000D01*
X-349725000Y-107475000D02*
X-349725000Y-106975000D01*
%TO.C,M4*%
X-333380000Y-167650000D02*
X-327630000Y-167650000D01*
X-333380000Y-173650000D02*
X-333380000Y-167650000D01*
X-332030000Y-172540000D02*
X-326950000Y-172540000D01*
X-332030000Y-173550000D02*
X-332030000Y-172540000D01*
X-326950000Y-172540000D02*
X-326950000Y-173550000D01*
X-326280000Y-167700000D02*
X-323080000Y-167700000D01*
X-323080000Y-167700000D02*
X-323080000Y-173650000D01*
X-323080000Y-173650000D02*
X-333380000Y-173650000D01*
%TO.C,U2*%
X-317667500Y-131892500D02*
X-309817500Y-131892500D01*
X-317667500Y-143832500D02*
X-317667500Y-131892500D01*
X-311937500Y-144162500D02*
X-309487500Y-144162500D01*
X-309817500Y-131892500D02*
X-309817500Y-143832500D01*
X-309817500Y-143832500D02*
X-317667500Y-143832500D01*
X-309487500Y-144162500D02*
X-309487500Y-141832500D01*
%TO.C,D6*%
X-280970000Y-151280000D02*
X-275530000Y-151280000D01*
X-280970000Y-151410000D02*
X-280970000Y-151280000D01*
X-280970000Y-154090000D02*
X-280970000Y-154220000D01*
X-280970000Y-154220000D02*
X-275530000Y-154220000D01*
D13*
X-279266000Y-151607000D02*
X-279266000Y-153893000D01*
D12*
X-279266000Y-152750000D02*
X-280663000Y-152750000D01*
X-277107000Y-152750000D02*
X-275837000Y-152750000D01*
X-275530000Y-151280000D02*
X-275530000Y-151410000D01*
X-275530000Y-154220000D02*
X-275530000Y-154090000D01*
D10*
X-277107000Y-153893000D02*
X-279266000Y-152750000D01*
X-277107000Y-151607000D01*
X-277107000Y-153893000D01*
G36*
X-277107000Y-153893000D02*
G01*
X-279266000Y-152750000D01*
X-277107000Y-151607000D01*
X-277107000Y-153893000D01*
G37*
%TO.C,D3*%
D12*
X-326920000Y-110690000D02*
X-326920000Y-114930000D01*
X-326920000Y-114930000D02*
X-324680000Y-114930000D01*
X-326689000Y-113572000D02*
X-324911000Y-113572000D01*
X-325800000Y-110040000D02*
X-325800000Y-110690000D01*
X-325800000Y-110690000D02*
X-325800000Y-111984500D01*
X-325800000Y-114969000D02*
X-325800000Y-113572000D01*
X-325800000Y-115580000D02*
X-325800000Y-114930000D01*
X-324680000Y-110690000D02*
X-326920000Y-110690000D01*
X-324680000Y-114930000D02*
X-324680000Y-110690000D01*
D10*
X-325800000Y-113572000D02*
X-326689000Y-112048000D01*
X-324911000Y-112048000D01*
X-325800000Y-113572000D01*
G36*
X-325800000Y-113572000D02*
G01*
X-326689000Y-112048000D01*
X-324911000Y-112048000D01*
X-325800000Y-113572000D01*
G37*
%TO.C,U1*%
D12*
X-308460000Y-145530000D02*
X-308460000Y-155810000D01*
X-308460000Y-155810000D02*
X-303160000Y-155810000D01*
X-306810000Y-145530000D02*
X-308460000Y-145530000D01*
X-303160000Y-145530000D02*
X-304810000Y-145530000D01*
X-303160000Y-155810000D02*
X-303160000Y-145530000D01*
X-304810000Y-145530000D02*
G75*
G02*
X-306810000Y-145530000I-1000000J0D01*
G01*
%TO.C,C2*%
X-304357500Y-138212500D02*
X-301617500Y-138212500D01*
X-304357500Y-143452500D02*
X-304357500Y-138212500D01*
X-301617500Y-138212500D02*
X-301617500Y-143452500D01*
X-301617500Y-143452500D02*
X-304357500Y-143452500D01*
%TO.C,R2*%
X-298160000Y-146880000D02*
X-297390000Y-146880000D01*
X-290080000Y-146880000D02*
X-290850000Y-146880000D01*
X-297390000Y-145510000D02*
X-290850000Y-145510000D01*
X-290850000Y-148250000D01*
X-297390000Y-148250000D01*
X-297390000Y-145510000D01*
%TO.C,D4*%
X-343420000Y-110440000D02*
X-343420000Y-114680000D01*
X-343420000Y-114680000D02*
X-341180000Y-114680000D01*
X-343189000Y-113322000D02*
X-341411000Y-113322000D01*
X-342300000Y-109790000D02*
X-342300000Y-110440000D01*
X-342300000Y-110440000D02*
X-342300000Y-111734500D01*
X-342300000Y-114719000D02*
X-342300000Y-113322000D01*
X-342300000Y-115330000D02*
X-342300000Y-114680000D01*
X-341180000Y-110440000D02*
X-343420000Y-110440000D01*
X-341180000Y-114680000D02*
X-341180000Y-110440000D01*
D10*
X-342300000Y-113322000D02*
X-343189000Y-111798000D01*
X-341411000Y-111798000D01*
X-342300000Y-113322000D01*
G36*
X-342300000Y-113322000D02*
G01*
X-343189000Y-111798000D01*
X-341411000Y-111798000D01*
X-342300000Y-113322000D01*
G37*
%TO.C,U3*%
D12*
X-362250000Y-149000000D02*
X-360870000Y-149000000D01*
X-360870000Y-147620000D02*
X-360870000Y-149000000D01*
%TO.C,D2*%
X-310670000Y-110630000D02*
X-310670000Y-114870000D01*
X-310670000Y-114870000D02*
X-308430000Y-114870000D01*
X-310439000Y-113512000D02*
X-308661000Y-113512000D01*
X-309550000Y-109980000D02*
X-309550000Y-110630000D01*
X-309550000Y-110630000D02*
X-309550000Y-111924500D01*
X-309550000Y-114909000D02*
X-309550000Y-113512000D01*
X-309550000Y-115520000D02*
X-309550000Y-114870000D01*
X-308430000Y-110630000D02*
X-310670000Y-110630000D01*
X-308430000Y-114870000D02*
X-308430000Y-110630000D01*
D10*
X-309550000Y-113512000D02*
X-310439000Y-111988000D01*
X-308661000Y-111988000D01*
X-309550000Y-113512000D01*
G36*
X-309550000Y-113512000D02*
G01*
X-310439000Y-111988000D01*
X-308661000Y-111988000D01*
X-309550000Y-113512000D01*
G37*
%TO.C,C3*%
D12*
X-308407500Y-138212500D02*
X-305667500Y-138212500D01*
X-308407500Y-143452500D02*
X-308407500Y-138212500D01*
X-305667500Y-138212500D02*
X-305667500Y-143452500D01*
X-305667500Y-143452500D02*
X-308407500Y-143452500D01*
%TO.C,C9*%
X-299490000Y-155110000D02*
X-296750000Y-155110000D01*
X-299490000Y-160350000D02*
X-299490000Y-155110000D01*
X-296750000Y-155110000D02*
X-296750000Y-160350000D01*
X-296750000Y-160350000D02*
X-299490000Y-160350000D01*
%TO.C,C4*%
X-308307500Y-132212500D02*
X-305567500Y-132212500D01*
X-308307500Y-137452500D02*
X-308307500Y-132212500D01*
X-305567500Y-132212500D02*
X-305567500Y-137452500D01*
X-305567500Y-137452500D02*
X-308307500Y-137452500D01*
%TO.C,M1*%
X-297380000Y-167650000D02*
X-291630000Y-167650000D01*
X-297380000Y-173650000D02*
X-297380000Y-167650000D01*
X-296030000Y-172540000D02*
X-290950000Y-172540000D01*
X-296030000Y-173550000D02*
X-296030000Y-172540000D01*
X-290950000Y-172540000D02*
X-290950000Y-173550000D01*
X-290280000Y-167700000D02*
X-287080000Y-167700000D01*
X-287080000Y-167700000D02*
X-287080000Y-173650000D01*
X-287080000Y-173650000D02*
X-297380000Y-173650000D01*
%TD*%
M02*
