%TF.GenerationSoftware,KiCad,Pcbnew,10.0.1*%
%TF.CreationDate,2026-08-19T00:10:16+02:00*%
%TF.ProjectId,Something,536f6d65-7468-4696-9e67-2e6b69636164,rev?*%
%TF.SameCoordinates,Original*%
%TF.FileFunction,Copper,L2,Bot*%
%TF.FilePolarity,Positive*%
%FSLAX46Y46*%
G04 Gerber Fmt 4.6, Leading zero omitted, Abs format (unit mm)*
G04 Created by KiCad (PCBNEW 10.0.1) date 2026-08-19 00:10:16*
%MOMM*%
%LPD*%
G01*
G04 APERTURE LIST*
G04 Aperture macros list*
%AMRoundRect*
0 Rectangle with rounded corners*
0 $1 Rounding radius*
0 $2 $3 $4 $5 $6 $7 $8 $9 X,Y pos of 4 corners*
0 Add a 4 corners polygon primitive as box body*
4,1,4,$2,$3,$4,$5,$6,$7,$8,$9,$2,$3,0*
0 Add four circle primitives for the rounded corners*
1,1,$1+$1,$2,$3*
1,1,$1+$1,$4,$5*
1,1,$1+$1,$6,$7*
1,1,$1+$1,$8,$9*
0 Add four rect primitives between the rounded corners*
20,1,$1+$1,$2,$3,$4,$5,0*
20,1,$1+$1,$4,$5,$6,$7,0*
20,1,$1+$1,$6,$7,$8,$9,0*
20,1,$1+$1,$8,$9,$2,$3,0*%
G04 Aperture macros list end*
%TA.AperFunction,ComponentPad*%
%ADD10O,5.020000X2.020000*%
%TD*%
%TA.AperFunction,ComponentPad*%
%ADD11R,5.020000X2.020000*%
%TD*%
%TA.AperFunction,ComponentPad*%
%ADD12RoundRect,0.725000X0.725000X-0.975000X0.725000X0.975000X-0.725000X0.975000X-0.725000X-0.975000X0*%
%TD*%
%TA.AperFunction,ComponentPad*%
%ADD13C,1.524000*%
%TD*%
%TA.AperFunction,ComponentPad*%
%ADD14RoundRect,0.250000X0.512000X0.512000X-0.512000X0.512000X-0.512000X-0.512000X0.512000X-0.512000X0*%
%TD*%
%TA.AperFunction,ComponentPad*%
%ADD15C,1.600000*%
%TD*%
%TA.AperFunction,ComponentPad*%
%ADD16R,1.600000X1.600000*%
%TD*%
%TA.AperFunction,ComponentPad*%
%ADD17O,1.600000X1.600000*%
%TD*%
%TA.AperFunction,ComponentPad*%
%ADD18R,1.730000X2.030000*%
%TD*%
%TA.AperFunction,ComponentPad*%
%ADD19O,1.730000X2.030000*%
%TD*%
%TA.AperFunction,ComponentPad*%
%ADD20O,2.400000X1.800000*%
%TD*%
%TA.AperFunction,ComponentPad*%
%ADD21R,2.200000X2.200000*%
%TD*%
%TA.AperFunction,ComponentPad*%
%ADD22O,2.200000X2.200000*%
%TD*%
%TA.AperFunction,ComponentPad*%
%ADD23R,1.050000X1.500000*%
%TD*%
%TA.AperFunction,ComponentPad*%
%ADD24O,1.050000X1.500000*%
%TD*%
%TA.AperFunction,ComponentPad*%
%ADD25R,2.500000X1.500000*%
%TD*%
%TA.AperFunction,ComponentPad*%
%ADD26O,2.500000X1.500000*%
%TD*%
%TA.AperFunction,ComponentPad*%
%ADD27RoundRect,0.250000X-0.550000X-0.550000X0.550000X-0.550000X0.550000X0.550000X-0.550000X0.550000X0*%
%TD*%
%TA.AperFunction,ComponentPad*%
%ADD28RoundRect,0.170000X0.680000X-0.680000X0.680000X0.680000X-0.680000X0.680000X-0.680000X-0.680000X0*%
%TD*%
%TA.AperFunction,ComponentPad*%
%ADD29C,1.700000*%
%TD*%
%TA.AperFunction,ViaPad*%
%ADD30C,0.600000*%
%TD*%
%TA.AperFunction,Conductor*%
%ADD31C,1.000000*%
%TD*%
%TA.AperFunction,Conductor*%
%ADD32C,0.500000*%
%TD*%
%TA.AperFunction,Conductor*%
%ADD33C,0.200000*%
%TD*%
G04 APERTURE END LIST*
D10*
%TO.P,J1,2*%
%TO.N,GND*%
X-278300000Y-161870000D03*
D11*
%TO.P,J1,1*%
%TO.N,12V*%
X-278300000Y-156690000D03*
%TD*%
D12*
%TO.P,SW5,SH*%
%TO.N,N/C*%
X-313350000Y-104800000D03*
%TO.N,GND*%
X-300450000Y-104800000D03*
D13*
%TO.P,SW5,S2,S2_S2*%
%TO.N,Net-(D2-A)*%
X-309400000Y-104000000D03*
%TO.P,SW5,S1,S1_S1*%
%TO.N,FAN-1*%
X-304400000Y-104000000D03*
%TO.P,SW5,C,C_C*%
%TO.N,GND*%
X-306900000Y-101500000D03*
%TO.P,SW5,B,B_B*%
%TO.N,PWM-1-OUT*%
X-309400000Y-101500000D03*
D14*
%TO.P,SW5,A,A_A*%
%TO.N,PWM-1-IN*%
X-304400000Y-101500000D03*
%TD*%
D15*
%TO.P,C6,1*%
%TO.N,GND*%
X-298837500Y-136082500D03*
%TO.P,C6,2*%
%TO.N,+5V*%
X-298837500Y-133582500D03*
%TD*%
%TO.P,R4,1*%
%TO.N,3.3V*%
X-322670000Y-162250000D03*
%TO.P,R4,2*%
%TO.N,TACH-1*%
X-332830000Y-162250000D03*
%TD*%
D16*
%TO.P,D5,1,K_1*%
%TO.N,GND*%
X-358550000Y-116560000D03*
D17*
%TO.P,D5,2,A_2*%
%TO.N,Net-(D5-A)*%
X-358550000Y-108940000D03*
%TD*%
D15*
%TO.P,R1,1*%
%TO.N,Net-(U1-Ilim)*%
X-316620000Y-148800000D03*
%TO.P,R1,2*%
%TO.N,5V*%
X-316620000Y-158960000D03*
%TD*%
%TO.P,R8,1*%
%TO.N,3.3V*%
X-359500000Y-154580000D03*
%TO.P,R8,2*%
%TO.N,SCL-0*%
X-359500000Y-144420000D03*
%TD*%
%TO.P,R9,1*%
%TO.N,SDA-0*%
X-359500000Y-139660000D03*
%TO.P,R9,2*%
%TO.N,3.3V*%
X-359500000Y-129500000D03*
%TD*%
D18*
%TO.P,M3,1,-_1*%
%TO.N,GND*%
X-320030000Y-170250000D03*
D19*
%TO.P,M3,2,+_2*%
%TO.N,+12V*%
X-317490000Y-170250000D03*
%TO.P,M3,3,Tacho_3*%
%TO.N,TACH-3*%
X-314950000Y-170250000D03*
%TO.P,M3,4,PWM_4*%
%TO.N,PWM-3*%
X-312410000Y-170250000D03*
%TD*%
D14*
%TO.P,SW6,A,A_A*%
%TO.N,PWM-2-IN*%
X-320800000Y-101500000D03*
D13*
%TO.P,SW6,B,B_B*%
%TO.N,PWM-2-OUT*%
X-325800000Y-101500000D03*
%TO.P,SW6,C,C_C*%
%TO.N,GND*%
X-323300000Y-101500000D03*
%TO.P,SW6,S1,S1_S1*%
%TO.N,FAN-2*%
X-320800000Y-104000000D03*
%TO.P,SW6,S2,S2_S2*%
%TO.N,Net-(D3-A)*%
X-325800000Y-104000000D03*
D12*
%TO.P,SW6,SH*%
%TO.N,N/C*%
X-316850000Y-104800000D03*
X-329750000Y-104800000D03*
%TD*%
D15*
%TO.P,R3,1*%
%TO.N,GND*%
X-288960000Y-150380000D03*
%TO.P,R3,2*%
%TO.N,Net-(U1-SENSE)*%
X-299120000Y-150380000D03*
%TD*%
%TO.P,C7,1*%
%TO.N,GND*%
X-290020000Y-156480000D03*
%TO.P,C7,2*%
%TO.N,+12V*%
X-290020000Y-158980000D03*
%TD*%
D20*
%TO.P,A1,1,GP0_1*%
%TO.N,SCL-0*%
X-337220000Y-173350000D03*
%TO.P,A1,2,GP1_2*%
%TO.N,SDA-0*%
X-337220000Y-170810000D03*
%TO.P,A1,3,GND_3*%
%TO.N,GND*%
X-337220000Y-168270000D03*
%TO.P,A1,4,GP2_4*%
%TO.N,TACH-1*%
X-337220000Y-165730000D03*
%TO.P,A1,5,GP3_5*%
%TO.N,PWM-1*%
X-337220000Y-163190000D03*
%TO.P,A1,6,GP4_6*%
%TO.N,PWM-1-IN*%
X-337220000Y-160650000D03*
%TO.P,A1,7,GP5_7*%
%TO.N,PWM-1-OUT*%
X-337220000Y-158110000D03*
%TO.P,A1,8,GND_8*%
%TO.N,GND*%
X-337220000Y-155570000D03*
%TO.P,A1,9,GP6_9*%
%TO.N,TACH-2*%
X-337220000Y-153030000D03*
%TO.P,A1,10,GP7_10*%
%TO.N,PWM-2*%
X-337220000Y-150490000D03*
%TO.P,A1,11,GP8_11*%
%TO.N,PWM-2-IN*%
X-337220000Y-147950000D03*
%TO.P,A1,12,GP9_12*%
%TO.N,PWM-2-OUT*%
X-337220000Y-145410000D03*
%TO.P,A1,13,GND_13*%
%TO.N,GND*%
X-337220000Y-142870000D03*
%TO.P,A1,14,GP10_14*%
%TO.N,TACH-3*%
X-337220000Y-140330000D03*
%TO.P,A1,15,GP11_15*%
%TO.N,PWM-3*%
X-337220000Y-137790000D03*
%TO.P,A1,16,GP12_16*%
%TO.N,PWM-3-IN*%
X-337220000Y-135250000D03*
%TO.P,A1,17,GP13_17*%
%TO.N,PWM-3-OUT*%
X-337220000Y-132710000D03*
%TO.P,A1,18,GND_18*%
%TO.N,GND*%
X-337220000Y-130170000D03*
%TO.P,A1,19,GP14_19*%
%TO.N,TACH-4*%
X-337220000Y-127630000D03*
%TO.P,A1,20,GP15_20*%
%TO.N,PWM-4*%
X-337220000Y-125090000D03*
%TO.P,A1,21,GP16_21*%
%TO.N,PWM-4-IN*%
X-355000000Y-125090000D03*
%TO.P,A1,22,GP17_22*%
%TO.N,PWM-4-OUT*%
X-355000000Y-127630000D03*
%TO.P,A1,23,GND_23*%
%TO.N,GND*%
X-355000000Y-130170000D03*
%TO.P,A1,24,GP18_24*%
%TO.N,FAN-1*%
X-355000000Y-132710000D03*
%TO.P,A1,25,GP19_25*%
%TO.N,FAN-2*%
X-355000000Y-135250000D03*
%TO.P,A1,26,GP20_26*%
%TO.N,FAN-3*%
X-355000000Y-137790000D03*
%TO.P,A1,27,GP21_27*%
%TO.N,FAN-4*%
X-355000000Y-140330000D03*
%TO.P,A1,28,GND_28*%
%TO.N,GND*%
X-355000000Y-142870000D03*
%TO.P,A1,29,GP22_29*%
%TO.N,unconnected-(A1-GP22-Pad29)*%
X-355000000Y-145410000D03*
%TO.P,A1,30,RUN_30*%
%TO.N,unconnected-(A1-RUN-Pad30)*%
X-355000000Y-147950000D03*
%TO.P,A1,31,ADC0/GP26_31*%
%TO.N,TEMP*%
X-355000000Y-150490000D03*
%TO.P,A1,32,ADC1/GP27_32*%
%TO.N,unconnected-(A1-ADC1{slash}GP27-Pad32)*%
X-355000000Y-153030000D03*
%TO.P,A1,33,GND_33*%
%TO.N,GND*%
X-355000000Y-155570000D03*
%TO.P,A1,34,ADC2/GP28_34*%
%TO.N,unconnected-(A1-ADC2{slash}GP28-Pad34)*%
X-355000000Y-158110000D03*
%TO.P,A1,35,ADC_VREF_35*%
%TO.N,unconnected-(A1-ADC_VREF-Pad35)*%
X-355000000Y-160650000D03*
%TO.P,A1,36,3V3(OUT)_36*%
%TO.N,3.3V*%
X-355000000Y-163190000D03*
%TO.P,A1,37,~{3V3_EN}_37*%
%TO.N,EN*%
X-355000000Y-165730000D03*
%TO.P,A1,38,GND_38*%
%TO.N,GND*%
X-355000000Y-168270000D03*
%TO.P,A1,39,VSYS_39*%
%TO.N,+5V*%
X-355000000Y-170810000D03*
%TO.P,A1,40,VBUS_40*%
%TO.N,5V*%
X-355000000Y-173350000D03*
%TD*%
D21*
%TO.P,D1,1,K_1*%
%TO.N,+12V*%
X-301810000Y-158980000D03*
D22*
%TO.P,D1,2,A_2*%
%TO.N,Net-(D1-A)*%
X-309430000Y-158980000D03*
%TD*%
D18*
%TO.P,M2,1,-_1*%
%TO.N,GND*%
X-308030000Y-170250000D03*
D19*
%TO.P,M2,2,+_2*%
%TO.N,+12V*%
X-305490000Y-170250000D03*
%TO.P,M2,3,Tacho_3*%
%TO.N,TACH-2*%
X-302950000Y-170250000D03*
%TO.P,M2,4,PWM_4*%
%TO.N,PWM-2*%
X-300410000Y-170250000D03*
%TD*%
D15*
%TO.P,R5,1*%
%TO.N,3.3V*%
X-322670000Y-149500000D03*
%TO.P,R5,2*%
%TO.N,TACH-2*%
X-332830000Y-149500000D03*
%TD*%
D14*
%TO.P,SW7,A,A_A*%
%TO.N,PWM-3-IN*%
X-337200000Y-101500000D03*
D13*
%TO.P,SW7,B,B_B*%
%TO.N,PWM-3-OUT*%
X-342200000Y-101500000D03*
%TO.P,SW7,C,C_C*%
%TO.N,GND*%
X-339700000Y-101500000D03*
%TO.P,SW7,S1,S1_S1*%
%TO.N,FAN-3*%
X-337200000Y-104000000D03*
%TO.P,SW7,S2,S2_S2*%
%TO.N,Net-(D4-A)*%
X-342200000Y-104000000D03*
D12*
%TO.P,SW7,SH*%
%TO.N,N/C*%
X-333250000Y-104800000D03*
X-346150000Y-104800000D03*
%TD*%
D15*
%TO.P,C8,1*%
%TO.N,GND*%
X-294070000Y-156480000D03*
%TO.P,C8,2*%
%TO.N,+12V*%
X-294070000Y-158980000D03*
%TD*%
%TO.P,C1,1*%
%TO.N,GND*%
X-298937500Y-139582500D03*
%TO.P,C1,2*%
%TO.N,12V*%
X-298937500Y-142082500D03*
%TD*%
%TO.P,R7,1*%
%TO.N,3.3V*%
X-322670000Y-124250000D03*
%TO.P,R7,2*%
%TO.N,TACH-4*%
X-332830000Y-124250000D03*
%TD*%
%TO.P,L1,1,1_1*%
%TO.N,5V*%
X-313120000Y-148800000D03*
%TO.P,L1,2,2_2*%
%TO.N,Net-(D1-A)*%
X-313120000Y-158960000D03*
%TD*%
%TO.P,R6,1*%
%TO.N,3.3V*%
X-322670000Y-137000000D03*
%TO.P,R6,2*%
%TO.N,TACH-3*%
X-332830000Y-137000000D03*
%TD*%
D23*
%TO.P,U4,1,+V_{S}_1*%
%TO.N,3.3V*%
X-359960000Y-173500000D03*
D24*
%TO.P,U4,2,V_{OUT}_2*%
%TO.N,TEMP*%
X-361230000Y-173500000D03*
%TO.P,U4,3,GND_3*%
%TO.N,GND*%
X-362500000Y-173500000D03*
%TD*%
D15*
%TO.P,C5,1*%
%TO.N,GND*%
X-302887500Y-136082500D03*
%TO.P,C5,2*%
%TO.N,+5V*%
X-302887500Y-133582500D03*
%TD*%
D14*
%TO.P,SW8,A,A_A*%
%TO.N,PWM-4-IN*%
X-353575000Y-101475000D03*
D13*
%TO.P,SW8,B,B_B*%
%TO.N,PWM-4-OUT*%
X-358575000Y-101475000D03*
%TO.P,SW8,C,C_C*%
%TO.N,GND*%
X-356075000Y-101475000D03*
%TO.P,SW8,S1,S1_S1*%
%TO.N,FAN-4*%
X-353575000Y-103975000D03*
%TO.P,SW8,S2,S2_S2*%
%TO.N,Net-(D5-A)*%
X-358575000Y-103975000D03*
D12*
%TO.P,SW8,SH*%
%TO.N,N/C*%
X-349625000Y-104775000D03*
X-362525000Y-104775000D03*
%TD*%
D18*
%TO.P,M4,1,-_1*%
%TO.N,GND*%
X-332030000Y-170250000D03*
D19*
%TO.P,M4,2,+_2*%
%TO.N,+12V*%
X-329490000Y-170250000D03*
%TO.P,M4,3,Tacho_3*%
%TO.N,TACH-4*%
X-326950000Y-170250000D03*
%TO.P,M4,4,PWM_4*%
%TO.N,PWM-4*%
X-324410000Y-170250000D03*
%TD*%
D25*
%TO.P,U2,1,Vin_1*%
%TO.N,12V*%
X-311937500Y-140412500D03*
D26*
%TO.P,U2,2,GND_2*%
%TO.N,GND*%
X-311937500Y-137872500D03*
%TO.P,U2,3,Vout_3*%
%TO.N,+5V*%
X-311937500Y-135332500D03*
%TD*%
D21*
%TO.P,D6,1,K_1*%
%TO.N,+12V*%
X-282060000Y-152750000D03*
D22*
%TO.P,D6,2,A_2*%
%TO.N,12V*%
X-274440000Y-152750000D03*
%TD*%
D16*
%TO.P,D3,1,K_1*%
%TO.N,GND*%
X-325800000Y-116620000D03*
D17*
%TO.P,D3,2,A_2*%
%TO.N,Net-(D3-A)*%
X-325800000Y-109000000D03*
%TD*%
D27*
%TO.P,U1,1,Ilim_1*%
%TO.N,Net-(U1-Ilim)*%
X-309620000Y-146860000D03*
D15*
%TO.P,U1,2,Vin_2*%
%TO.N,5V*%
X-309620000Y-149400000D03*
%TO.P,U1,3,SW1_3*%
%TO.N,Net-(D1-A)*%
X-309620000Y-151940000D03*
%TO.P,U1,4,SW2_4*%
%TO.N,GND*%
X-309620000Y-154480000D03*
%TO.P,U1,5,GND_5*%
X-302000000Y-154480000D03*
%TO.P,U1,6,A0_6*%
%TO.N,unconnected-(U1-A0-Pad6)*%
X-302000000Y-151940000D03*
%TO.P,U1,7,SET_7*%
%TO.N,unconnected-(U1-SET-Pad7)*%
X-302000000Y-149400000D03*
%TO.P,U1,8,SENSE_8*%
%TO.N,Net-(U1-SENSE)*%
X-302000000Y-146860000D03*
%TD*%
%TO.P,C2,1*%
%TO.N,GND*%
X-302987500Y-139582500D03*
%TO.P,C2,2*%
%TO.N,12V*%
X-302987500Y-142082500D03*
%TD*%
%TO.P,R2,1*%
%TO.N,Net-(U1-SENSE)*%
X-299200000Y-146880000D03*
%TO.P,R2,2*%
%TO.N,+12V*%
X-289040000Y-146880000D03*
%TD*%
D16*
%TO.P,D4,1,K_1*%
%TO.N,GND*%
X-342300000Y-116370000D03*
D17*
%TO.P,D4,2,A_2*%
%TO.N,Net-(D4-A)*%
X-342300000Y-108750000D03*
%TD*%
D28*
%TO.P,U3,1,GND_1*%
%TO.N,GND*%
X-362250000Y-147620000D03*
D29*
%TO.P,U3,2,VCC_2*%
%TO.N,3.3V*%
X-362250000Y-145080000D03*
%TO.P,U3,3,SCL_3*%
%TO.N,SCL-0*%
X-362250000Y-142540000D03*
%TO.P,U3,4,SDA_4*%
%TO.N,SDA-0*%
X-362250000Y-140000000D03*
%TD*%
D16*
%TO.P,D2,1,K_1*%
%TO.N,GND*%
X-309550000Y-116560000D03*
D17*
%TO.P,D2,2,A_2*%
%TO.N,Net-(D2-A)*%
X-309550000Y-108940000D03*
%TD*%
D15*
%TO.P,C3,1*%
%TO.N,GND*%
X-307037500Y-139582500D03*
%TO.P,C3,2*%
%TO.N,12V*%
X-307037500Y-142082500D03*
%TD*%
%TO.P,C9,1*%
%TO.N,GND*%
X-298120000Y-156480000D03*
%TO.P,C9,2*%
%TO.N,+12V*%
X-298120000Y-158980000D03*
%TD*%
%TO.P,C4,1*%
%TO.N,GND*%
X-306937500Y-136082500D03*
%TO.P,C4,2*%
%TO.N,+5V*%
X-306937500Y-133582500D03*
%TD*%
D18*
%TO.P,M1,1,-_1*%
%TO.N,GND*%
X-296030000Y-170250000D03*
D19*
%TO.P,M1,2,+_2*%
%TO.N,+12V*%
X-293490000Y-170250000D03*
%TO.P,M1,3,Tacho_3*%
%TO.N,TACH-1*%
X-290950000Y-170250000D03*
%TO.P,M1,4,PWM_4*%
%TO.N,PWM-1*%
X-288410000Y-170250000D03*
%TD*%
D30*
%TO.N,+5V*%
X-350000000Y-165750000D03*
X-293782500Y-129750000D03*
%TO.N,3.3V*%
X-352000000Y-163250000D03*
%TO.N,TACH-3*%
X-324650000Y-140000000D03*
%TO.N,PWM-3*%
X-324050000Y-140685996D03*
%TO.N,PWM-2-IN*%
X-328500000Y-145250000D03*
X-328500000Y-128500000D03*
%TO.N,PWM-2-OUT*%
X-329500000Y-145250000D03*
X-329500000Y-128500000D03*
%TO.N,FAN-2*%
X-351250000Y-135250000D03*
X-341750000Y-118500000D03*
X-323500000Y-118000000D03*
X-337750000Y-118750000D03*
%TO.N,PWM-1*%
X-329240735Y-164990735D03*
%TO.N,PWM-1-IN*%
X-326500000Y-152500000D03*
X-326500000Y-128500000D03*
%TO.N,PWM-1-OUT*%
X-327500000Y-128500000D03*
X-327500000Y-152500000D03*
%TO.N,TACH-2*%
X-323650000Y-153325000D03*
X-301500000Y-166350000D03*
%TO.N,PWM-2*%
X-323250000Y-154250000D03*
X-300699997Y-166350000D03*
%TO.N,PWM-3-IN*%
X-339250000Y-117750000D03*
X-339250000Y-120750000D03*
%TO.N,FAN-1*%
X-343500000Y-119250000D03*
X-350750000Y-132750000D03*
X-337750000Y-119750000D03*
X-307500000Y-118000000D03*
%TO.N,FAN-3*%
X-351500000Y-137750000D03*
X-340500000Y-118000000D03*
%TO.N,FAN-4*%
X-357000000Y-120500000D03*
%TO.N,5V*%
X-321000000Y-123250000D03*
X-348000000Y-166570000D03*
%TD*%
%TO.N,GND*%
D31*
X-288960000Y-155420000D02*
X-288960000Y-150380000D01*
X-335640000Y-168270000D02*
X-337220000Y-168270000D01*
X-354580000Y-130170000D02*
X-355000000Y-130170000D01*
X-337220000Y-142870000D02*
X-337242742Y-142870000D01*
X-290020000Y-156480000D02*
X-288960000Y-155420000D01*
X-343300000Y-116560000D02*
X-327300000Y-116560000D01*
X-298937500Y-139582500D02*
X-298167500Y-139582500D01*
X-355000000Y-168270000D02*
X-354700000Y-168270000D01*
X-358550000Y-116560000D02*
X-343300000Y-116560000D01*
X-305780000Y-172500000D02*
X-298280000Y-172500000D01*
X-333660000Y-170250000D02*
X-335640000Y-168270000D01*
X-323300000Y-115060000D02*
X-323300000Y-101500000D01*
X-355000000Y-142870000D02*
X-354977258Y-142870000D01*
X-327300000Y-116560000D02*
X-324800000Y-116560000D01*
X-355930000Y-143800000D02*
X-356500000Y-143800000D01*
X-306900000Y-105250000D02*
X-306900000Y-101500000D01*
X-300950000Y-105500000D02*
X-300450000Y-105000000D01*
X-349625000Y-104975000D02*
X-350087000Y-105437000D01*
X-354977258Y-142870000D02*
X-353100000Y-140992742D01*
X-351750000Y-127750000D02*
X-351750000Y-123360000D01*
X-333250000Y-105000000D02*
X-333712000Y-105462000D01*
X-350087000Y-105437000D02*
X-362063000Y-105437000D01*
X-325860000Y-116560000D02*
X-325800000Y-116620000D01*
X-345688000Y-105462000D02*
X-346150000Y-105000000D01*
X-353100000Y-144747258D02*
X-354977258Y-142870000D01*
X-313350000Y-105000000D02*
X-316850000Y-105000000D01*
X-307037500Y-139582500D02*
X-298937500Y-139582500D01*
X-353921371Y-156648629D02*
X-355000000Y-155570000D01*
X-351750000Y-123360000D02*
X-358550000Y-116560000D01*
X-302000000Y-154480000D02*
X-300120000Y-154480000D01*
X-294500000Y-143250000D02*
X-294500000Y-146750000D01*
X-339120000Y-166392742D02*
X-339120000Y-157447258D01*
X-339120000Y-144747258D02*
X-337242742Y-142870000D01*
X-353898629Y-156648629D02*
X-353921371Y-156648629D01*
X-343300000Y-116560000D02*
X-342490000Y-116560000D01*
X-337242742Y-155570000D02*
X-339120000Y-153692742D01*
X-339700000Y-113770000D02*
X-339700000Y-101500000D01*
X-356500000Y-143800000D02*
X-360320000Y-147620000D01*
X-360320000Y-147620000D02*
X-362250000Y-147620000D01*
X-358770000Y-168270000D02*
X-362500000Y-172000000D01*
X-306937500Y-136082500D02*
X-308727500Y-137872500D01*
X-294500000Y-146750000D02*
X-290870000Y-150380000D01*
X-353100000Y-140992742D02*
X-353100000Y-131650000D01*
X-339120000Y-157447258D02*
X-337242742Y-155570000D01*
X-337220000Y-168270000D02*
X-337242742Y-168270000D01*
X-317312000Y-105462000D02*
X-329288000Y-105462000D01*
X-307150000Y-105500000D02*
X-300950000Y-105500000D01*
X-333712000Y-105462000D02*
X-345688000Y-105462000D01*
X-324800000Y-116560000D02*
X-309550000Y-116560000D01*
X-320030000Y-170250000D02*
X-317780000Y-172500000D01*
X-354700000Y-168270000D02*
X-353100000Y-166670000D01*
X-308727500Y-137872500D02*
X-311937500Y-137872500D01*
X-288960000Y-150380000D02*
X-288960000Y-150160000D01*
X-337242742Y-142870000D02*
X-339420000Y-140692742D01*
X-339120000Y-153692742D02*
X-339120000Y-144747258D01*
X-342300000Y-116370000D02*
X-339700000Y-113770000D01*
X-302000000Y-154480000D02*
X-309620000Y-154480000D01*
X-354700000Y-155570000D02*
X-353100000Y-153970000D01*
X-329750000Y-105000000D02*
X-333250000Y-105000000D01*
X-306900000Y-105250000D02*
X-307150000Y-105500000D01*
X-290870000Y-150380000D02*
X-288960000Y-150380000D01*
X-324800000Y-116560000D02*
X-323300000Y-115060000D01*
X-293750000Y-172500000D02*
X-282000000Y-172500000D01*
X-317780000Y-172500000D02*
X-310280000Y-172500000D01*
X-337220000Y-155570000D02*
X-337242742Y-155570000D01*
X-308727500Y-137872500D02*
X-308727500Y-137892500D01*
X-309550000Y-116560000D02*
X-306900000Y-113910000D01*
X-282000000Y-172500000D02*
X-274500000Y-165000000D01*
X-362063000Y-105437000D02*
X-362525000Y-104975000D01*
X-307150000Y-105500000D02*
X-312850000Y-105500000D01*
X-329780000Y-172500000D02*
X-322280000Y-172500000D01*
X-306900000Y-113910000D02*
X-306900000Y-105250000D01*
X-327300000Y-116560000D02*
X-325860000Y-116560000D01*
X-356075000Y-114085000D02*
X-356075000Y-101475000D01*
X-358550000Y-116560000D02*
X-356075000Y-114085000D01*
X-354170000Y-130170000D02*
X-351750000Y-127750000D01*
X-349600000Y-105000000D02*
X-349625000Y-104975000D01*
X-275280000Y-161720000D02*
X-278250000Y-161720000D01*
X-353100000Y-157447258D02*
X-353898629Y-156648629D01*
X-332030000Y-170250000D02*
X-333660000Y-170250000D01*
X-278250000Y-161720000D02*
X-281530000Y-161720000D01*
X-274500000Y-162500000D02*
X-275280000Y-161720000D01*
X-308727500Y-137892500D02*
X-307037500Y-139582500D01*
X-329288000Y-105462000D02*
X-329750000Y-105000000D01*
X-337220000Y-168270000D02*
X-355000000Y-168270000D01*
X-337520000Y-130170000D02*
X-337220000Y-130170000D01*
X-308030000Y-170250000D02*
X-305780000Y-172500000D01*
X-353100000Y-131650000D02*
X-354580000Y-130170000D01*
X-287830000Y-155420000D02*
X-288960000Y-155420000D01*
X-298280000Y-172500000D02*
X-296030000Y-170250000D01*
X-300120000Y-154480000D02*
X-298120000Y-156480000D01*
X-339420000Y-132070000D02*
X-337520000Y-130170000D01*
X-362500000Y-172000000D02*
X-362500000Y-173500000D01*
X-332030000Y-170250000D02*
X-329780000Y-172500000D01*
X-353100000Y-166670000D02*
X-353100000Y-157447258D01*
X-296000000Y-170250000D02*
X-293750000Y-172500000D01*
X-312850000Y-105500000D02*
X-313350000Y-105000000D01*
X-316850000Y-105000000D02*
X-317312000Y-105462000D01*
X-337242742Y-168270000D02*
X-339120000Y-166392742D01*
X-339420000Y-140692742D02*
X-339420000Y-132070000D01*
X-322280000Y-172500000D02*
X-320030000Y-170250000D01*
X-298120000Y-156480000D02*
X-290020000Y-156480000D01*
X-355000000Y-168270000D02*
X-358770000Y-168270000D01*
X-298167500Y-139582500D02*
X-294500000Y-143250000D01*
X-353100000Y-153970000D02*
X-353100000Y-144747258D01*
X-346150000Y-105000000D02*
X-349600000Y-105000000D01*
X-355000000Y-142870000D02*
X-355930000Y-143800000D01*
X-310280000Y-172500000D02*
X-308030000Y-170250000D01*
X-296030000Y-170250000D02*
X-296000000Y-170250000D01*
X-355000000Y-130170000D02*
X-354170000Y-130170000D01*
X-281530000Y-161720000D02*
X-287830000Y-155420000D01*
X-306937500Y-136082500D02*
X-298837500Y-136082500D01*
X-342490000Y-116560000D02*
X-342300000Y-116370000D01*
X-355000000Y-155570000D02*
X-354700000Y-155570000D01*
X-274500000Y-165000000D02*
X-274500000Y-162500000D01*
%TO.N,+5V*%
X-342250000Y-165000000D02*
X-342820000Y-165570000D01*
X-319250000Y-129000000D02*
X-319750000Y-128500000D01*
X-322035786Y-120800000D02*
X-337472641Y-120800000D01*
X-319750000Y-123085786D02*
X-322035786Y-120800000D01*
X-294250000Y-129000000D02*
X-319250000Y-129000000D01*
X-342250000Y-125577359D02*
X-342250000Y-165000000D01*
X-319750000Y-128500000D02*
X-319750000Y-123085786D01*
X-337472641Y-120800000D02*
X-342250000Y-125577359D01*
X-342820000Y-165570000D02*
X-349820000Y-165570000D01*
X-293782500Y-129467500D02*
X-294250000Y-129000000D01*
X-349820000Y-165570000D02*
X-350000000Y-165750000D01*
X-293782500Y-129750000D02*
X-293782500Y-129467500D01*
%TO.N,3.3V*%
D32*
X-324470000Y-122450000D02*
X-336789188Y-122450000D01*
X-341820000Y-167320000D02*
X-350180000Y-167320000D01*
X-363750000Y-150330000D02*
X-363750000Y-146580000D01*
X-350180000Y-167320000D02*
X-351500000Y-166000000D01*
X-322670000Y-124250000D02*
X-324470000Y-122450000D01*
X-362250000Y-145080000D02*
X-363750000Y-143580000D01*
X-340500000Y-166000000D02*
X-341820000Y-167320000D01*
X-340500000Y-126160812D02*
X-340500000Y-166000000D01*
X-355000000Y-163190000D02*
X-359500000Y-158690000D01*
X-363750000Y-143580000D02*
X-363750000Y-133750000D01*
X-359500000Y-158690000D02*
X-359500000Y-154580000D01*
X-351500000Y-163750000D02*
X-352000000Y-163250000D01*
X-363750000Y-146580000D02*
X-362250000Y-145080000D01*
X-351500000Y-166000000D02*
X-351500000Y-163750000D01*
X-336789188Y-122450000D02*
X-340500000Y-126160812D01*
X-363750000Y-133750000D02*
X-359500000Y-129500000D01*
X-359500000Y-154580000D02*
X-363750000Y-150330000D01*
%TO.N,TACH-3*%
D33*
X-324650000Y-140000000D02*
X-324650000Y-163600000D01*
X-320450000Y-164750000D02*
X-314950000Y-170250000D01*
X-324650000Y-163600000D02*
X-323500000Y-164750000D01*
X-323500000Y-164750000D02*
X-320450000Y-164750000D01*
%TO.N,PWM-3*%
X-323250000Y-164000000D02*
X-317745000Y-164000000D01*
X-324050000Y-141300000D02*
X-324250000Y-141500000D01*
X-324250000Y-163000000D02*
X-323250000Y-164000000D01*
X-324050000Y-140685996D02*
X-324050000Y-141300000D01*
X-312410000Y-169335000D02*
X-312410000Y-170250000D01*
X-317745000Y-164000000D02*
X-312410000Y-169335000D01*
X-324250000Y-141500000D02*
X-324250000Y-163000000D01*
%TO.N,PWM-2-IN*%
X-328500000Y-145250000D02*
X-328500000Y-128500000D01*
%TO.N,PWM-2-OUT*%
X-329500000Y-145250000D02*
X-329500000Y-128500000D01*
%TO.N,FAN-2*%
X-351250000Y-135250000D02*
X-349000000Y-133000000D01*
X-323500000Y-118000000D02*
X-324250000Y-118750000D01*
X-324250000Y-118750000D02*
X-337750000Y-118750000D01*
X-349000000Y-133000000D02*
X-349000000Y-125750000D01*
X-349000000Y-125750000D02*
X-341750000Y-118500000D01*
%TO.N,PWM-1*%
X-329240735Y-164990735D02*
X-333509265Y-164990735D01*
X-333509265Y-164990735D02*
X-335310000Y-163190000D01*
X-335310000Y-163190000D02*
X-337220000Y-163190000D01*
%TO.N,PWM-1-IN*%
X-326500000Y-152500000D02*
X-326500000Y-128500000D01*
%TO.N,PWM-1-OUT*%
X-327500000Y-128500000D02*
X-327500000Y-152500000D01*
%TO.N,TACH-2*%
X-316250000Y-164500000D02*
X-303350000Y-164500000D01*
X-323850000Y-154001471D02*
X-323850000Y-157650000D01*
X-303350000Y-164500000D02*
X-301500000Y-166350000D01*
X-321500000Y-160000000D02*
X-320750000Y-160000000D01*
X-323850000Y-157650000D02*
X-321500000Y-160000000D01*
X-323650000Y-153801471D02*
X-323850000Y-154001471D01*
X-320750000Y-160000000D02*
X-316250000Y-164500000D01*
X-323650000Y-153325000D02*
X-323650000Y-153801471D01*
%TO.N,PWM-2*%
X-323250000Y-157684314D02*
X-323250000Y-154250000D01*
X-300699997Y-166300003D02*
X-303000000Y-164000000D01*
X-323000000Y-157934314D02*
X-323250000Y-157684314D01*
X-321467157Y-159467157D02*
X-323000000Y-157934314D01*
X-320717157Y-159467157D02*
X-321467157Y-159467157D01*
X-316184314Y-164000000D02*
X-320717157Y-159467157D01*
X-300699997Y-166350000D02*
X-300699997Y-166300003D01*
X-303000000Y-164000000D02*
X-316184314Y-164000000D01*
%TO.N,PWM-3-IN*%
X-339250000Y-120750000D02*
X-339250000Y-117750000D01*
%TO.N,TACH-4*%
X-325750000Y-126250000D02*
X-325750000Y-169050000D01*
X-332830000Y-124250000D02*
X-327750000Y-124250000D01*
X-327750000Y-124250000D02*
X-325750000Y-126250000D01*
X-325750000Y-169050000D02*
X-326950000Y-170250000D01*
%TO.N,PWM-4*%
X-335130000Y-123000000D02*
X-337220000Y-125090000D01*
X-325250000Y-169410000D02*
X-325250000Y-126184314D01*
X-324410000Y-170250000D02*
X-325250000Y-169410000D01*
X-328434314Y-123000000D02*
X-335130000Y-123000000D01*
X-325250000Y-126184314D02*
X-328434314Y-123000000D01*
%TO.N,FAN-1*%
X-349500000Y-131750000D02*
X-350500000Y-132750000D01*
X-349500000Y-125250000D02*
X-349500000Y-131750000D01*
X-343500000Y-119250000D02*
X-349500000Y-125250000D01*
X-309250000Y-119750000D02*
X-337750000Y-119750000D01*
X-350500000Y-132750000D02*
X-350750000Y-132750000D01*
X-307500000Y-118000000D02*
X-309250000Y-119750000D01*
%TO.N,FAN-3*%
X-340500000Y-118000000D02*
X-341000000Y-118500000D01*
X-348500000Y-134750000D02*
X-351500000Y-137750000D01*
X-348500000Y-126500000D02*
X-348500000Y-134750000D01*
X-341000000Y-119000000D02*
X-348500000Y-126500000D01*
X-341000000Y-118500000D02*
X-341000000Y-119000000D01*
%TO.N,FAN-4*%
X-357000000Y-120500000D02*
X-357000000Y-138330000D01*
X-357000000Y-138330000D02*
X-355000000Y-140330000D01*
%TO.N,5V*%
D32*
X-321000000Y-123250000D02*
X-322500000Y-121750000D01*
X-337079138Y-121750000D02*
X-341200000Y-125870863D01*
X-322500000Y-121750000D02*
X-337079138Y-121750000D01*
X-342059950Y-166570000D02*
X-348000000Y-166570000D01*
X-341200000Y-125870863D02*
X-341200000Y-165710050D01*
X-341200000Y-165710050D02*
X-342059950Y-166570000D01*
%TD*%
M02*
