M48
; DRILL file KiCad 10.0.1 date 2026-08-19T00:10:19
; FORMAT={-:-/ absolute / metric / decimal}
; #@! TF.CreationDate,2026-08-19T00:10:19+02:00
; #@! TF.GenerationSoftware,Kicad,Pcbnew,10.0.1
; #@! TF.FileFunction,Plated,1,2,PTH
FMAT,2
METRIC
; #@! TA.AperFunction,Plated,PTH,ViaDrill
T1C0.300
; #@! TA.AperFunction,Plated,PTH,ComponentDrill
T2C0.750
; #@! TA.AperFunction,Plated,PTH,ComponentDrill
T3C0.800
; #@! TA.AperFunction,Plated,PTH,ComponentDrill
T4C1.000
; #@! TA.AperFunction,Plated,PTH,ComponentDrill
T5C1.020
; #@! TA.AperFunction,Plated,PTH,ComponentDrill
T6C1.100
; #@! TA.AperFunction,Plated,PTH,ComponentDrill
T7C2.100
%
G90
G05
T1
X-357.0Y-120.5
X-352.0Y-163.25
X-351.5Y-137.75
X-351.25Y-135.25
X-350.75Y-132.75
X-350.0Y-165.75
X-348.0Y-166.57
X-343.5Y-119.25
X-341.75Y-118.5
X-340.5Y-118.0
X-339.25Y-117.75
X-339.25Y-120.75
X-337.75Y-118.75
X-337.75Y-119.75
X-329.5Y-128.5
X-329.5Y-145.25
X-329.241Y-164.991
X-328.5Y-128.5
X-328.5Y-145.25
X-327.5Y-128.5
X-327.5Y-152.5
X-326.5Y-128.5
X-326.5Y-152.5
X-324.65Y-140.0
X-324.05Y-140.686
X-323.65Y-153.325
X-323.5Y-118.0
X-323.25Y-154.25
X-321.0Y-123.25
X-307.5Y-118.0
X-301.5Y-166.35
X-300.7Y-166.35
X-293.782Y-129.75
T2
X-362.5Y-173.5
X-361.23Y-173.5
X-359.96Y-173.5
T3
X-359.5Y-129.5
X-359.5Y-139.66
X-359.5Y-144.42
X-359.5Y-154.58
X-358.55Y-108.94
X-358.55Y-116.56
X-342.3Y-108.75
X-342.3Y-116.37
X-332.83Y-124.25
X-332.83Y-137.0
X-332.83Y-149.5
X-332.83Y-162.25
X-325.8Y-109.0
X-325.8Y-116.62
X-322.67Y-124.25
X-322.67Y-137.0
X-322.67Y-149.5
X-322.67Y-162.25
X-316.62Y-148.8
X-316.62Y-158.96
X-313.12Y-148.8
X-313.12Y-158.96
X-309.62Y-146.86
X-309.62Y-149.4
X-309.62Y-151.94
X-309.62Y-154.48
X-309.55Y-108.94
X-309.55Y-116.56
X-307.037Y-139.582
X-307.037Y-142.082
X-306.938Y-133.582
X-306.938Y-136.082
X-302.988Y-139.582
X-302.988Y-142.082
X-302.887Y-133.582
X-302.887Y-136.082
X-302.0Y-146.86
X-302.0Y-149.4
X-302.0Y-151.94
X-302.0Y-154.48
X-299.2Y-146.88
X-299.12Y-150.38
X-298.938Y-139.582
X-298.938Y-142.082
X-298.837Y-133.582
X-298.837Y-136.082
X-298.12Y-156.48
X-298.12Y-158.98
X-294.07Y-156.48
X-294.07Y-158.98
X-290.02Y-156.48
X-290.02Y-158.98
X-289.04Y-146.88
X-288.96Y-150.38
T4
X-362.25Y-140.0
X-362.25Y-142.54
X-362.25Y-145.08
X-362.25Y-147.62
X-358.575Y-101.475
X-358.575Y-103.975
X-356.075Y-101.475
X-355.0Y-125.09
X-355.0Y-127.63
X-355.0Y-130.17
X-355.0Y-132.71
X-355.0Y-135.25
X-355.0Y-137.79
X-355.0Y-140.33
X-355.0Y-142.87
X-355.0Y-145.41
X-355.0Y-147.95
X-355.0Y-150.49
X-355.0Y-153.03
X-355.0Y-155.57
X-355.0Y-158.11
X-355.0Y-160.65
X-355.0Y-163.19
X-355.0Y-165.73
X-355.0Y-168.27
X-355.0Y-170.81
X-355.0Y-173.35
X-353.575Y-101.475
X-353.575Y-103.975
X-342.2Y-101.5
X-342.2Y-104.0
X-339.7Y-101.5
X-337.22Y-125.09
X-337.22Y-127.63
X-337.22Y-130.17
X-337.22Y-132.71
X-337.22Y-135.25
X-337.22Y-137.79
X-337.22Y-140.33
X-337.22Y-142.87
X-337.22Y-145.41
X-337.22Y-147.95
X-337.22Y-150.49
X-337.22Y-153.03
X-337.22Y-155.57
X-337.22Y-158.11
X-337.22Y-160.65
X-337.22Y-163.19
X-337.22Y-165.73
X-337.22Y-168.27
X-337.22Y-170.81
X-337.22Y-173.35
X-337.2Y-101.5
X-337.2Y-104.0
X-325.8Y-101.5
X-325.8Y-104.0
X-323.3Y-101.5
X-320.8Y-101.5
X-320.8Y-104.0
X-311.938Y-135.332
X-311.938Y-137.873
X-311.938Y-140.412
X-309.4Y-101.5
X-309.4Y-104.0
X-306.9Y-101.5
X-304.4Y-101.5
X-304.4Y-104.0
T5
X-332.03Y-170.25
X-329.49Y-170.25
X-326.95Y-170.25
X-324.41Y-170.25
X-320.03Y-170.25
X-317.49Y-170.25
X-314.95Y-170.25
X-312.41Y-170.25
X-308.03Y-170.25
X-305.49Y-170.25
X-302.95Y-170.25
X-300.41Y-170.25
X-296.03Y-170.25
X-293.49Y-170.25
X-290.95Y-170.25
X-288.41Y-170.25
T6
X-309.43Y-158.98
X-301.81Y-158.98
X-282.06Y-152.75
X-274.44Y-152.75
T5
G00X-279.8Y-156.69
M15
G01X-276.8Y-156.69
M16
G05
G00X-279.8Y-161.87
M15
G01X-276.8Y-161.87
M16
G05
T7
G00X-362.525Y-105.175
M15
G01X-362.525Y-104.775
M16
G05
G00X-349.625Y-105.175
M15
G01X-349.625Y-104.775
M16
G05
G00X-346.15Y-105.2
M15
G01X-346.15Y-104.8
M16
G05
G00X-333.25Y-105.2
M15
G01X-333.25Y-104.8
M16
G05
G00X-329.75Y-105.2
M15
G01X-329.75Y-104.8
M16
G05
G00X-316.85Y-105.2
M15
G01X-316.85Y-104.8
M16
G05
G00X-313.35Y-105.2
M15
G01X-313.35Y-104.8
M16
G05
G00X-300.45Y-105.2
M15
G01X-300.45Y-104.8
M16
G05
M30
