%TF.GenerationSoftware,KiCad,Pcbnew,10.0.1*%
%TF.CreationDate,2026-08-19T00:10:16+02:00*%
%TF.ProjectId,Something,536f6d65-7468-4696-9e67-2e6b69636164,rev?*%
%TF.SameCoordinates,Original*%
%TF.FileFunction,Soldermask,Top*%
%TF.FilePolarity,Negative*%
%FSLAX46Y46*%
G04 Gerber Fmt 4.6, Leading zero omitted, Abs format (unit mm)*
G04 Created by KiCad (PCBNEW 10.0.1) date 2026-08-19 00:10:16*
%MOMM*%
%LPD*%
G01*
G04 APERTURE LIST*
G04 Aperture macros list*
%AMRoundRect*
0 Rectangle with rounded corners*
0 $1 Rounding radius*
0 $2 $3 $4 $5 $6 $7 $8 $9 X,Y pos of 4 corners*
0 Add a 4 corners polygon primitive as box body*
4,1,4,$2,$3,$4,$5,$6,$7,$8,$9,$2,$3,0*
0 Add four circle primitives for the rounded corners*
1,1,$1+$1,$2,$3*
1,1,$1+$1,$4,$5*
1,1,$1+$1,$6,$7*
1,1,$1+$1,$8,$9*
0 Add four rect primitives between the rounded corners*
20,1,$1+$1,$2,$3,$4,$5,0*
20,1,$1+$1,$4,$5,$6,$7,0*
20,1,$1+$1,$6,$7,$8,$9,0*
20,1,$1+$1,$8,$9,$2,$3,0*%
G04 Aperture macros list end*
%ADD10O,5.020000X2.020000*%
%ADD11R,5.020000X2.020000*%
%ADD12RoundRect,0.725000X0.725000X-0.975000X0.725000X0.975000X-0.725000X0.975000X-0.725000X-0.975000X0*%
%ADD13C,1.524000*%
%ADD14RoundRect,0.250000X0.512000X0.512000X-0.512000X0.512000X-0.512000X-0.512000X0.512000X-0.512000X0*%
%ADD15C,1.600000*%
%ADD16R,1.600000X1.600000*%
%ADD17O,1.600000X1.600000*%
%ADD18C,1.100000*%
%ADD19R,1.730000X2.030000*%
%ADD20O,1.730000X2.030000*%
%ADD21O,2.400000X1.800000*%
%ADD22R,2.200000X2.200000*%
%ADD23O,2.200000X2.200000*%
%ADD24R,1.050000X1.500000*%
%ADD25O,1.050000X1.500000*%
%ADD26R,2.500000X1.500000*%
%ADD27O,2.500000X1.500000*%
%ADD28RoundRect,0.250000X-0.550000X-0.550000X0.550000X-0.550000X0.550000X0.550000X-0.550000X0.550000X0*%
%ADD29RoundRect,0.170000X0.680000X-0.680000X0.680000X0.680000X-0.680000X0.680000X-0.680000X-0.680000X0*%
%ADD30C,1.700000*%
G04 APERTURE END LIST*
D10*
%TO.C,J1*%
X-278300000Y-161870000D03*
D11*
X-278300000Y-156690000D03*
%TD*%
D12*
%TO.C,SW5*%
X-313350000Y-104800000D03*
X-300450000Y-104800000D03*
D13*
X-309400000Y-104000000D03*
X-304400000Y-104000000D03*
X-306900000Y-101500000D03*
X-309400000Y-101500000D03*
D14*
X-304400000Y-101500000D03*
%TD*%
D15*
%TO.C,C6*%
X-298837500Y-136082500D03*
X-298837500Y-133582500D03*
%TD*%
%TO.C,R4*%
X-322670000Y-162250000D03*
X-332830000Y-162250000D03*
%TD*%
D16*
%TO.C,D5*%
X-358550000Y-116560000D03*
D17*
X-358550000Y-108940000D03*
%TD*%
D15*
%TO.C,R1*%
X-316620000Y-148800000D03*
X-316620000Y-158960000D03*
%TD*%
%TO.C,R8*%
X-359500000Y-154580000D03*
X-359500000Y-144420000D03*
%TD*%
%TO.C,R9*%
X-359500000Y-139660000D03*
X-359500000Y-129500000D03*
%TD*%
D18*
%TO.C,M3*%
X-314950000Y-168090000D03*
D19*
X-320030000Y-170250000D03*
D20*
X-317490000Y-170250000D03*
X-314950000Y-170250000D03*
X-312410000Y-170250000D03*
%TD*%
D14*
%TO.C,SW6*%
X-320800000Y-101500000D03*
D13*
X-325800000Y-101500000D03*
X-323300000Y-101500000D03*
X-320800000Y-104000000D03*
X-325800000Y-104000000D03*
D12*
X-316850000Y-104800000D03*
X-329750000Y-104800000D03*
%TD*%
D15*
%TO.C,R3*%
X-288960000Y-150380000D03*
X-299120000Y-150380000D03*
%TD*%
%TO.C,C7*%
X-290020000Y-156480000D03*
X-290020000Y-158980000D03*
%TD*%
D21*
%TO.C,A1*%
X-337220000Y-173350000D03*
X-337220000Y-170810000D03*
X-337220000Y-168270000D03*
X-337220000Y-165730000D03*
X-337220000Y-163190000D03*
X-337220000Y-160650000D03*
X-337220000Y-158110000D03*
X-337220000Y-155570000D03*
X-337220000Y-153030000D03*
X-337220000Y-150490000D03*
X-337220000Y-147950000D03*
X-337220000Y-145410000D03*
X-337220000Y-142870000D03*
X-337220000Y-140330000D03*
X-337220000Y-137790000D03*
X-337220000Y-135250000D03*
X-337220000Y-132710000D03*
X-337220000Y-130170000D03*
X-337220000Y-127630000D03*
X-337220000Y-125090000D03*
X-355000000Y-125090000D03*
X-355000000Y-127630000D03*
X-355000000Y-130170000D03*
X-355000000Y-132710000D03*
X-355000000Y-135250000D03*
X-355000000Y-137790000D03*
X-355000000Y-140330000D03*
X-355000000Y-142870000D03*
X-355000000Y-145410000D03*
X-355000000Y-147950000D03*
X-355000000Y-150490000D03*
X-355000000Y-153030000D03*
X-355000000Y-155570000D03*
X-355000000Y-158110000D03*
X-355000000Y-160650000D03*
X-355000000Y-163190000D03*
X-355000000Y-165730000D03*
X-355000000Y-168270000D03*
X-355000000Y-170810000D03*
X-355000000Y-173350000D03*
%TD*%
D22*
%TO.C,D1*%
X-301810000Y-158980000D03*
D23*
X-309430000Y-158980000D03*
%TD*%
D18*
%TO.C,M2*%
X-302950000Y-168090000D03*
D19*
X-308030000Y-170250000D03*
D20*
X-305490000Y-170250000D03*
X-302950000Y-170250000D03*
X-300410000Y-170250000D03*
%TD*%
D15*
%TO.C,R5*%
X-322670000Y-149500000D03*
X-332830000Y-149500000D03*
%TD*%
D14*
%TO.C,SW7*%
X-337200000Y-101500000D03*
D13*
X-342200000Y-101500000D03*
X-339700000Y-101500000D03*
X-337200000Y-104000000D03*
X-342200000Y-104000000D03*
D12*
X-333250000Y-104800000D03*
X-346150000Y-104800000D03*
%TD*%
D15*
%TO.C,C8*%
X-294070000Y-156480000D03*
X-294070000Y-158980000D03*
%TD*%
%TO.C,C1*%
X-298937500Y-139582500D03*
X-298937500Y-142082500D03*
%TD*%
%TO.C,R7*%
X-322670000Y-124250000D03*
X-332830000Y-124250000D03*
%TD*%
%TO.C,L1*%
X-313120000Y-148800000D03*
X-313120000Y-158960000D03*
%TD*%
%TO.C,R6*%
X-322670000Y-137000000D03*
X-332830000Y-137000000D03*
%TD*%
D24*
%TO.C,U4*%
X-359960000Y-173500000D03*
D25*
X-361230000Y-173500000D03*
X-362500000Y-173500000D03*
%TD*%
D15*
%TO.C,C5*%
X-302887500Y-136082500D03*
X-302887500Y-133582500D03*
%TD*%
D14*
%TO.C,SW8*%
X-353575000Y-101475000D03*
D13*
X-358575000Y-101475000D03*
X-356075000Y-101475000D03*
X-353575000Y-103975000D03*
X-358575000Y-103975000D03*
D12*
X-349625000Y-104775000D03*
X-362525000Y-104775000D03*
%TD*%
D18*
%TO.C,M4*%
X-326950000Y-168090000D03*
D19*
X-332030000Y-170250000D03*
D20*
X-329490000Y-170250000D03*
X-326950000Y-170250000D03*
X-324410000Y-170250000D03*
%TD*%
D26*
%TO.C,U2*%
X-311937500Y-140412500D03*
D27*
X-311937500Y-137872500D03*
X-311937500Y-135332500D03*
%TD*%
D22*
%TO.C,D6*%
X-282060000Y-152750000D03*
D23*
X-274440000Y-152750000D03*
%TD*%
D16*
%TO.C,D3*%
X-325800000Y-116620000D03*
D17*
X-325800000Y-109000000D03*
%TD*%
D28*
%TO.C,U1*%
X-309620000Y-146860000D03*
D15*
X-309620000Y-149400000D03*
X-309620000Y-151940000D03*
X-309620000Y-154480000D03*
X-302000000Y-154480000D03*
X-302000000Y-151940000D03*
X-302000000Y-149400000D03*
X-302000000Y-146860000D03*
%TD*%
%TO.C,C2*%
X-302987500Y-139582500D03*
X-302987500Y-142082500D03*
%TD*%
%TO.C,R2*%
X-299200000Y-146880000D03*
X-289040000Y-146880000D03*
%TD*%
D16*
%TO.C,D4*%
X-342300000Y-116370000D03*
D17*
X-342300000Y-108750000D03*
%TD*%
D29*
%TO.C,U3*%
X-362250000Y-147620000D03*
D30*
X-362250000Y-145080000D03*
X-362250000Y-142540000D03*
X-362250000Y-140000000D03*
%TD*%
D16*
%TO.C,D2*%
X-309550000Y-116560000D03*
D17*
X-309550000Y-108940000D03*
%TD*%
D15*
%TO.C,C3*%
X-307037500Y-139582500D03*
X-307037500Y-142082500D03*
%TD*%
%TO.C,C9*%
X-298120000Y-156480000D03*
X-298120000Y-158980000D03*
%TD*%
%TO.C,C4*%
X-306937500Y-136082500D03*
X-306937500Y-133582500D03*
%TD*%
D18*
%TO.C,M1*%
X-290950000Y-168090000D03*
D19*
X-296030000Y-170250000D03*
D20*
X-293490000Y-170250000D03*
X-290950000Y-170250000D03*
X-288410000Y-170250000D03*
%TD*%
M02*
